<?xml version="1.0" encoding="utf-8" standalone="no"?>
<!DOCTYPE svg PUBLIC "-//W3C//DTD SVG 1.1//EN"
  "http://www.w3.org/Graphics/SVG/1.1/DTD/svg11.dtd">
<svg xmlns:xlink="http://www.w3.org/1999/xlink" width="1152pt" height="576pt" viewBox="0 0 1152 576" xmlns="http://www.w3.org/2000/svg" version="1.1">
 <metadata>
  <rdf:RDF xmlns:dc="http://purl.org/dc/elements/1.1/" xmlns:cc="http://creativecommons.org/ns#" xmlns:rdf="http://www.w3.org/1999/02/22-rdf-syntax-ns#">
   <cc:Work>
    <dc:type rdf:resource="http://purl.org/dc/dcmitype/StillImage"/>
    <dc:date>2024-09-06T09:14:51.038738</dc:date>
    <dc:format>image/svg+xml</dc:format>
    <dc:creator>
     <cc:Agent>
      <dc:title>Matplotlib v3.5.3, https://matplotlib.org/</dc:title>
     </cc:Agent>
    </dc:creator>
   </cc:Work>
  </rdf:RDF>
 </metadata>
 <defs>
  <style type="text/css">*{stroke-linejoin: round; stroke-linecap: butt}</style>
 </defs>
 <g id="figure_1">
  <g id="patch_1">
   <path d="M 0 576 
L 1152 576 
L 1152 0 
L 0 0 
z
" style="fill: #ffffff"/>
  </g>
  <g id="axes_1">
   <g id="patch_2">
    <path d="M 144 512.64 
L 1036.8 512.64 
L 1036.8 69.12 
L 144 69.12 
z
" style="fill: #ffffff"/>
   </g>
   <g id="matplotlib.axis_1">
    <g id="xtick_1">
     <g id="line2d_1">
      <path d="M 184.581818 512.64 
L 184.581818 69.12 
" clip-path="url(#p9c6ab1f278)" style="fill: none; stroke: #b0b0b0; stroke-opacity: 0.9; stroke-width: 0.8; stroke-linecap: square"/>
     </g>
     <g id="line2d_2">
      <defs>
       <path id="m52debefef0" d="M 0 0 
L 0 3.5 
" style="stroke: #000000; stroke-width: 0.8"/>
      </defs>
      <g>
       <use xlink:href="#m52debefef0" x="184.581818" y="512.64" style="stroke: #000000; stroke-width: 0.8"/>
      </g>
     </g>
     <g id="text_1">
      <!-- 0 -->
      <g transform="translate(182.081818 526.515)scale(0.1 -0.1)">
       <defs>
        <path id="SimHei-30" d="M 225 2537 
Q 250 3200 412 3587 
Q 575 3975 875 4225 
Q 1175 4475 1612 4475 
Q 2050 4475 2375 4112 
Q 2700 3750 2800 3200 
Q 2900 2650 2862 1937 
Q 2825 1225 2612 775 
Q 2400 325 1975 150 
Q 1550 -25 1125 187 
Q 700 400 525 750 
Q 350 1100 275 1487 
Q 200 1875 225 2537 
z
M 750 2687 
Q 675 2000 800 1462 
Q 925 925 1212 700 
Q 1500 475 1800 612 
Q 2100 750 2237 1162 
Q 2375 1575 2375 2062 
Q 2375 2550 2337 2950 
Q 2300 3350 2112 3675 
Q 1925 4000 1612 4012 
Q 1300 4025 1062 3700 
Q 825 3375 750 2687 
z
" transform="scale(0.015625)"/>
       </defs>
       <use xlink:href="#SimHei-30"/>
      </g>
     </g>
    </g>
    <g id="xtick_2">
     <g id="line2d_3">
      <path d="M 346.909091 512.64 
L 346.909091 69.12 
" clip-path="url(#p9c6ab1f278)" style="fill: none; stroke: #b0b0b0; stroke-opacity: 0.9; stroke-width: 0.8; stroke-linecap: square"/>
     </g>
     <g id="line2d_4">
      <g>
       <use xlink:href="#m52debefef0" x="346.909091" y="512.64" style="stroke: #000000; stroke-width: 0.8"/>
      </g>
     </g>
     <g id="text_2">
      <!-- 90 -->
      <g transform="translate(341.909091 526.515)scale(0.1 -0.1)">
       <defs>
        <path id="SimHei-39" d="M 800 75 
Q 1350 1000 1700 1750 
Q 1075 1650 662 1912 
Q 250 2175 162 2625 
Q 75 3075 175 3437 
Q 275 3800 487 4037 
Q 700 4275 1000 4375 
Q 1300 4475 1537 4475 
Q 1775 4475 2025 4375 
Q 2275 4275 2475 4075 
Q 2675 3875 2750 3662 
Q 2825 3450 2825 3112 
Q 2825 2775 2575 2250 
Q 2325 1725 1350 75 
L 800 75 
z
M 662 2875 
Q 700 2550 937 2337 
Q 1175 2125 1450 2150 
Q 1725 2175 1887 2300 
Q 2050 2425 2200 2725 
Q 2300 3100 2250 3362 
Q 2200 3625 1987 3800 
Q 1775 3975 1525 3975 
Q 1375 4000 1137 3900 
Q 900 3800 762 3500 
Q 625 3200 662 2875 
z
" transform="scale(0.015625)"/>
       </defs>
       <use xlink:href="#SimHei-39"/>
       <use xlink:href="#SimHei-30" x="50"/>
      </g>
     </g>
    </g>
    <g id="xtick_3">
     <g id="line2d_5">
      <path d="M 509.236364 512.64 
L 509.236364 69.12 
" clip-path="url(#p9c6ab1f278)" style="fill: none; stroke: #b0b0b0; stroke-opacity: 0.9; stroke-width: 0.8; stroke-linecap: square"/>
     </g>
     <g id="line2d_6">
      <g>
       <use xlink:href="#m52debefef0" x="509.236364" y="512.64" style="stroke: #000000; stroke-width: 0.8"/>
      </g>
     </g>
     <g id="text_3">
      <!-- 180 -->
      <g transform="translate(501.736364 526.515)scale(0.1 -0.1)">
       <defs>
        <path id="SimHei-31" d="M 1400 3600 
Q 1075 3275 575 2975 
L 575 3450 
Q 1200 3875 1600 4450 
L 1900 4450 
L 1900 150 
L 1400 150 
L 1400 3600 
z
" transform="scale(0.015625)"/>
        <path id="SimHei-38" d="M 175 1375 
Q 175 1675 325 1962 
Q 475 2250 825 2425 
Q 525 2600 425 2812 
Q 325 3025 312 3300 
Q 300 3575 387 3775 
Q 475 3975 650 4150 
Q 825 4325 1037 4387 
Q 1250 4450 1500 4450 
Q 1750 4450 1950 4400 
Q 2150 4350 2375 4187 
Q 2600 4025 2700 3725 
Q 2800 3425 2687 3025 
Q 2575 2625 2100 2400 
Q 2525 2275 2700 2012 
Q 2875 1750 2875 1375 
Q 2875 1000 2762 775 
Q 2650 550 2512 400 
Q 2375 250 2137 162 
Q 1900 75 1537 75 
Q 1175 75 912 162 
Q 650 250 475 425 
Q 300 600 237 837 
Q 175 1075 175 1375 
z
M 687 1400 
Q 675 1100 787 875 
Q 900 650 1200 587 
Q 1500 525 1825 600 
Q 2150 675 2275 950 
Q 2400 1225 2362 1500 
Q 2325 1775 2050 1962 
Q 1775 2150 1450 2125 
Q 1125 2100 912 1900 
Q 700 1700 687 1400 
z
M 775 3350 
Q 775 3100 950 2875 
Q 1125 2650 1500 2650 
Q 1875 2650 2062 2875 
Q 2250 3100 2237 3412 
Q 2225 3725 2012 3875 
Q 1800 4025 1437 4000 
Q 1075 3975 925 3787 
Q 775 3600 775 3350 
z
" transform="scale(0.015625)"/>
       </defs>
       <use xlink:href="#SimHei-31"/>
       <use xlink:href="#SimHei-38" x="50"/>
       <use xlink:href="#SimHei-30" x="100"/>
      </g>
     </g>
    </g>
    <g id="xtick_4">
     <g id="line2d_7">
      <path d="M 671.563636 512.64 
L 671.563636 69.12 
" clip-path="url(#p9c6ab1f278)" style="fill: none; stroke: #b0b0b0; stroke-opacity: 0.9; stroke-width: 0.8; stroke-linecap: square"/>
     </g>
     <g id="line2d_8">
      <g>
       <use xlink:href="#m52debefef0" x="671.563636" y="512.64" style="stroke: #000000; stroke-width: 0.8"/>
      </g>
     </g>
     <g id="text_4">
      <!-- 270 -->
      <g transform="translate(664.063636 526.515)scale(0.1 -0.1)">
       <defs>
        <path id="SimHei-32" d="M 300 250 
Q 325 625 650 925 
Q 975 1225 1475 1862 
Q 1975 2500 2125 2850 
Q 2275 3200 2237 3450 
Q 2200 3700 2000 3862 
Q 1800 4025 1537 4000 
Q 1275 3975 1037 3800 
Q 800 3625 675 3275 
L 200 3350 
Q 400 3925 712 4187 
Q 1025 4450 1450 4475 
Q 1700 4500 1900 4462 
Q 2100 4425 2312 4287 
Q 2525 4150 2662 3875 
Q 2800 3600 2762 3212 
Q 2725 2825 2375 2287 
Q 2025 1750 1025 600 
L 2825 600 
L 2825 150 
L 300 150 
L 300 250 
z
" transform="scale(0.015625)"/>
        <path id="SimHei-37" d="M 850 150 
Q 1300 2050 2425 3925 
L 275 3925 
L 275 4375 
L 2950 4375 
L 2950 3950 
Q 1775 2050 1400 150 
L 850 150 
z
" transform="scale(0.015625)"/>
       </defs>
       <use xlink:href="#SimHei-32"/>
       <use xlink:href="#SimHei-37" x="50"/>
       <use xlink:href="#SimHei-30" x="100"/>
      </g>
     </g>
    </g>
    <g id="xtick_5">
     <g id="line2d_9">
      <path d="M 833.890909 512.64 
L 833.890909 69.12 
" clip-path="url(#p9c6ab1f278)" style="fill: none; stroke: #b0b0b0; stroke-opacity: 0.9; stroke-width: 0.8; stroke-linecap: square"/>
     </g>
     <g id="line2d_10">
      <g>
       <use xlink:href="#m52debefef0" x="833.890909" y="512.64" style="stroke: #000000; stroke-width: 0.8"/>
      </g>
     </g>
     <g id="text_5">
      <!-- 360 -->
      <g transform="translate(826.390909 526.515)scale(0.1 -0.1)">
       <defs>
        <path id="SimHei-33" d="M 250 1225 
L 700 1300 
Q 800 975 1025 762 
Q 1250 550 1587 562 
Q 1925 575 2125 837 
Q 2325 1100 2300 1437 
Q 2275 1775 2037 1962 
Q 1800 2150 1275 2225 
L 1275 2550 
Q 1800 2600 2037 2825 
Q 2275 3050 2250 3412 
Q 2225 3775 1925 3937 
Q 1625 4100 1287 3975 
Q 950 3850 750 3275 
L 300 3350 
Q 450 3800 712 4100 
Q 975 4400 1425 4450 
Q 1875 4500 2212 4337 
Q 2550 4175 2687 3837 
Q 2825 3500 2725 3100 
Q 2625 2700 2150 2400 
Q 2500 2250 2687 1950 
Q 2875 1650 2812 1162 
Q 2750 675 2375 375 
Q 2000 75 1525 87 
Q 1050 100 700 387 
Q 350 675 250 1225 
z
" transform="scale(0.015625)"/>
        <path id="SimHei-36" d="M 250 1612 
Q 275 1975 387 2225 
Q 500 2475 725 2850 
L 1750 4450 
L 2325 4450 
L 1275 2800 
Q 1950 2975 2350 2750 
Q 2750 2525 2887 2237 
Q 3025 1950 3037 1612 
Q 3050 1275 2937 950 
Q 2825 625 2537 362 
Q 2250 100 1737 75 
Q 1225 50 862 262 
Q 500 475 362 862 
Q 225 1250 250 1612 
z
M 1025 787 
Q 1250 550 1625 525 
Q 2000 500 2250 775 
Q 2500 1050 2500 1575 
Q 2500 2100 2187 2300 
Q 1875 2500 1487 2450 
Q 1100 2400 925 2075 
Q 750 1750 775 1387 
Q 800 1025 1025 787 
z
" transform="scale(0.015625)"/>
       </defs>
       <use xlink:href="#SimHei-33"/>
       <use xlink:href="#SimHei-36" x="50"/>
       <use xlink:href="#SimHei-30" x="100"/>
      </g>
     </g>
    </g>
   </g>
   <g id="matplotlib.axis_2">
    <g id="ytick_1">
     <g id="line2d_11">
      <path d="M 144 492.48 
L 1036.8 492.48 
" clip-path="url(#p9c6ab1f278)" style="fill: none; stroke: #b0b0b0; stroke-opacity: 0.9; stroke-width: 0.8; stroke-linecap: square"/>
     </g>
     <g id="line2d_12">
      <defs>
       <path id="mebcfca2f3f" d="M 0 0 
L -3.5 0 
" style="stroke: #000000; stroke-width: 0.8"/>
      </defs>
      <g>
       <use xlink:href="#mebcfca2f3f" x="144" y="492.48" style="stroke: #000000; stroke-width: 0.8"/>
      </g>
     </g>
     <g id="text_6">
      <!-- -3 -->
      <g transform="translate(127 495.9175)scale(0.1 -0.1)">
       <defs>
        <path id="SimHei-2d" d="M 2975 2125 
L 125 2125 
L 125 2525 
L 2975 2525 
L 2975 2125 
z
" transform="scale(0.015625)"/>
       </defs>
       <use xlink:href="#SimHei-2d"/>
       <use xlink:href="#SimHei-33" x="50"/>
      </g>
     </g>
    </g>
    <g id="ytick_2">
     <g id="line2d_13">
      <path d="M 144 425.28 
L 1036.8 425.28 
" clip-path="url(#p9c6ab1f278)" style="fill: none; stroke: #b0b0b0; stroke-opacity: 0.9; stroke-width: 0.8; stroke-linecap: square"/>
     </g>
     <g id="line2d_14">
      <g>
       <use xlink:href="#mebcfca2f3f" x="144" y="425.28" style="stroke: #000000; stroke-width: 0.8"/>
      </g>
     </g>
     <g id="text_7">
      <!-- -2 -->
      <g transform="translate(127 428.7175)scale(0.1 -0.1)">
       <use xlink:href="#SimHei-2d"/>
       <use xlink:href="#SimHei-32" x="50"/>
      </g>
     </g>
    </g>
    <g id="ytick_3">
     <g id="line2d_15">
      <path d="M 144 358.08 
L 1036.8 358.08 
" clip-path="url(#p9c6ab1f278)" style="fill: none; stroke: #b0b0b0; stroke-opacity: 0.9; stroke-width: 0.8; stroke-linecap: square"/>
     </g>
     <g id="line2d_16">
      <g>
       <use xlink:href="#mebcfca2f3f" x="144" y="358.08" style="stroke: #000000; stroke-width: 0.8"/>
      </g>
     </g>
     <g id="text_8">
      <!-- -1 -->
      <g transform="translate(127 361.5175)scale(0.1 -0.1)">
       <use xlink:href="#SimHei-2d"/>
       <use xlink:href="#SimHei-31" x="50"/>
      </g>
     </g>
    </g>
    <g id="ytick_4">
     <g id="line2d_17">
      <path d="M 144 290.88 
L 1036.8 290.88 
" clip-path="url(#p9c6ab1f278)" style="fill: none; stroke: #b0b0b0; stroke-opacity: 0.9; stroke-width: 0.8; stroke-linecap: square"/>
     </g>
     <g id="line2d_18">
      <g>
       <use xlink:href="#mebcfca2f3f" x="144" y="290.88" style="stroke: #000000; stroke-width: 0.8"/>
      </g>
     </g>
     <g id="text_9">
      <!-- 0 -->
      <g transform="translate(132 294.3175)scale(0.1 -0.1)">
       <use xlink:href="#SimHei-30"/>
      </g>
     </g>
    </g>
    <g id="ytick_5">
     <g id="line2d_19">
      <path d="M 144 223.68 
L 1036.8 223.68 
" clip-path="url(#p9c6ab1f278)" style="fill: none; stroke: #b0b0b0; stroke-opacity: 0.9; stroke-width: 0.8; stroke-linecap: square"/>
     </g>
     <g id="line2d_20">
      <g>
       <use xlink:href="#mebcfca2f3f" x="144" y="223.68" style="stroke: #000000; stroke-width: 0.8"/>
      </g>
     </g>
     <g id="text_10">
      <!-- 1 -->
      <g transform="translate(132 227.1175)scale(0.1 -0.1)">
       <use xlink:href="#SimHei-31"/>
      </g>
     </g>
    </g>
    <g id="ytick_6">
     <g id="line2d_21">
      <path d="M 144 156.48 
L 1036.8 156.48 
" clip-path="url(#p9c6ab1f278)" style="fill: none; stroke: #b0b0b0; stroke-opacity: 0.9; stroke-width: 0.8; stroke-linecap: square"/>
     </g>
     <g id="line2d_22">
      <g>
       <use xlink:href="#mebcfca2f3f" x="144" y="156.48" style="stroke: #000000; stroke-width: 0.8"/>
      </g>
     </g>
     <g id="text_11">
      <!-- 2 -->
      <g transform="translate(132 159.9175)scale(0.1 -0.1)">
       <use xlink:href="#SimHei-32"/>
      </g>
     </g>
    </g>
    <g id="ytick_7">
     <g id="line2d_23">
      <path d="M 144 89.28 
L 1036.8 89.28 
" clip-path="url(#p9c6ab1f278)" style="fill: none; stroke: #b0b0b0; stroke-opacity: 0.9; stroke-width: 0.8; stroke-linecap: square"/>
     </g>
     <g id="line2d_24">
      <g>
       <use xlink:href="#mebcfca2f3f" x="144" y="89.28" style="stroke: #000000; stroke-width: 0.8"/>
      </g>
     </g>
     <g id="text_12">
      <!-- 3 -->
      <g transform="translate(132 92.7175)scale(0.1 -0.1)">
       <use xlink:href="#SimHei-33"/>
      </g>
     </g>
    </g>
   </g>
   <g id="line2d_25">
    <path d="M 184.581818 290.88 
L 208.029091 275.763289 
L 220.654545 267.896246 
L 231.476364 261.421459 
L 240.494545 256.269441 
L 249.512727 251.380831 
L 256.727273 247.684673 
L 263.941818 244.198958 
L 271.156364 240.940668 
L 278.370909 237.925677 
L 285.585455 235.168675 
L 292.8 232.683093 
L 300.014545 230.48104 
L 307.229091 228.573245 
L 312.64 227.341152 
L 318.050909 226.283214 
L 323.461818 225.402332 
L 328.872727 224.700919 
L 334.283636 224.180899 
L 339.694545 223.843696 
L 345.105455 223.690235 
L 350.516364 223.720936 
L 355.927273 223.935716 
L 361.338182 224.333986 
L 366.749091 224.914653 
L 372.16 225.676127 
L 377.570909 226.61632 
L 382.981818 227.732656 
L 388.392727 229.022074 
L 395.607273 231.004362 
L 402.821818 233.278357 
L 410.036364 235.832983 
L 417.250909 238.655791 
L 424.465455 241.733031 
L 431.68 245.04971 
L 438.894545 248.58967 
L 447.912727 253.302237 
L 456.930909 258.300794 
L 465.949091 263.547298 
L 476.770909 270.114058 
L 489.396364 278.057636 
L 507.432727 289.707198 
L 532.683636 305.996711 
L 545.309091 313.863754 
L 556.130909 320.338541 
L 565.149091 325.490559 
L 574.167273 330.379169 
L 581.381818 334.075327 
L 588.596364 337.561042 
L 595.810909 340.819332 
L 603.025455 343.834323 
L 610.24 346.591325 
L 617.454545 349.076907 
L 624.669091 351.27896 
L 631.883636 353.186755 
L 637.294545 354.418848 
L 642.705455 355.476786 
L 648.116364 356.357668 
L 653.527273 357.059081 
L 658.938182 357.579101 
L 664.349091 357.916304 
L 669.76 358.069765 
L 675.170909 358.039064 
L 680.581818 357.824284 
L 685.992727 357.426014 
L 691.403636 356.845347 
L 696.814545 356.083873 
L 702.225455 355.14368 
L 707.636364 354.027344 
L 713.047273 352.737926 
L 720.261818 350.755638 
L 727.476364 348.481643 
L 734.690909 345.927017 
L 741.905455 343.104209 
L 749.12 340.026969 
L 756.334545 336.71029 
L 763.549091 333.17033 
L 772.567273 328.457763 
L 781.585455 323.459206 
L 790.603636 318.212702 
L 801.425455 311.645942 
L 814.050909 303.702364 
L 832.087273 292.052802 
L 857.338182 275.763289 
L 869.963636 267.896246 
L 880.785455 261.421459 
L 889.803636 256.269441 
L 898.821818 251.380831 
L 906.036364 247.684673 
L 913.250909 244.198958 
L 920.465455 240.940668 
L 927.68 237.925677 
L 934.894545 235.168675 
L 942.109091 232.683093 
L 949.323636 230.48104 
L 956.538182 228.573245 
L 961.949091 227.341152 
L 967.36 226.283214 
L 972.770909 225.402332 
L 978.181818 224.700919 
L 983.592727 224.180899 
L 989.003636 223.843696 
L 994.414545 223.690235 
L 996.218182 223.68 
L 996.218182 223.68 
" clip-path="url(#p9c6ab1f278)" style="fill: none; stroke: #1f77b4; stroke-width: 1.5; stroke-linecap: square"/>
   </g>
   <g id="line2d_26">
    <path d="M 184.581818 290.88 
L 204.421818 252.412907 
L 215.243636 231.937864 
L 224.261818 215.359311 
L 231.476364 202.504377 
L 238.690909 190.08 
L 245.905455 178.146711 
L 251.316364 169.554091 
L 256.727273 161.294018 
L 262.138182 153.389131 
L 267.549091 145.861096 
L 272.96 138.730549 
L 278.370909 132.017032 
L 283.781818 125.738948 
L 289.192727 119.913504 
L 294.603636 114.556667 
L 298.210909 111.253085 
L 301.818182 108.16835 
L 305.425455 105.306222 
L 309.032727 102.670186 
L 312.64 100.263455 
L 316.247273 98.088961 
L 319.854545 96.149353 
L 323.461818 94.446995 
L 327.069091 92.98396 
L 330.676364 91.762031 
L 334.283636 90.782696 
L 337.890909 90.047149 
L 341.498182 89.556286 
L 345.105455 89.310705 
L 348.712727 89.310705 
L 352.32 89.556286 
L 355.927273 90.047149 
L 359.534545 90.782696 
L 363.141818 91.762031 
L 366.749091 92.98396 
L 370.356364 94.446995 
L 373.963636 96.149353 
L 377.570909 98.088961 
L 381.178182 100.263455 
L 384.785455 102.670186 
L 388.392727 105.306222 
L 392 108.16835 
L 395.607273 111.253085 
L 399.214545 114.556667 
L 402.821818 118.075072 
L 408.232727 123.746025 
L 413.643636 129.875081 
L 419.054545 136.44544 
L 424.465455 143.439094 
L 429.876364 150.836873 
L 435.287273 158.6185 
L 440.698182 166.762647 
L 446.109091 175.24699 
L 453.323636 187.048324 
L 460.538182 199.355515 
L 467.752727 212.108604 
L 476.770909 228.582174 
L 485.789091 245.529867 
L 498.414545 269.807062 
L 534.487273 339.651454 
L 543.505455 356.51454 
L 552.523636 372.878107 
L 559.738182 385.525467 
L 566.952727 397.711724 
L 574.167273 409.377507 
L 579.578182 417.750991 
L 584.989091 425.77673 
L 590.4 433.432727 
L 595.810909 440.697997 
L 601.221818 447.552626 
L 606.632727 453.977826 
L 612.043636 459.955986 
L 617.454545 465.470721 
L 621.061818 468.882235 
L 624.669091 472.07688 
L 628.276364 475.050764 
L 631.883636 477.800265 
L 635.490909 480.322032 
L 639.098182 482.612994 
L 642.705455 484.670358 
L 646.312727 486.491618 
L 649.92 488.074556 
L 653.527273 489.417243 
L 657.134545 490.518043 
L 660.741818 491.375614 
L 664.349091 491.988913 
L 667.956364 492.357191 
L 671.563636 492.48 
L 675.170909 492.357191 
L 678.778182 491.988913 
L 682.385455 491.375614 
L 685.992727 490.518043 
L 689.6 489.417243 
L 693.207273 488.074556 
L 696.814545 486.491618 
L 700.421818 484.670358 
L 704.029091 482.612994 
L 707.636364 480.322032 
L 711.243636 477.800265 
L 714.850909 475.050764 
L 718.458182 472.07688 
L 722.065455 468.882235 
L 725.672727 465.470721 
L 729.28 461.846496 
L 734.690909 456.021052 
L 740.101818 449.742968 
L 745.512727 443.029451 
L 750.923636 435.898904 
L 756.334545 428.370869 
L 761.745455 420.465982 
L 767.156364 412.205909 
L 772.567273 403.613289 
L 779.781818 391.68 
L 786.996364 379.255623 
L 794.210909 366.400689 
L 803.229091 349.822136 
L 814.050909 329.347093 
L 828.48 301.430929 
L 853.730909 252.412907 
L 864.552727 231.937864 
L 873.570909 215.359311 
L 880.785455 202.504377 
L 888 190.08 
L 895.214545 178.146711 
L 900.625455 169.554091 
L 906.036364 161.294018 
L 911.447273 153.389131 
L 916.858182 145.861096 
L 922.269091 138.730549 
L 927.68 132.017032 
L 933.090909 125.738948 
L 938.501818 119.913504 
L 943.912727 114.556667 
L 947.52 111.253085 
L 951.127273 108.16835 
L 954.734545 105.306222 
L 958.341818 102.670186 
L 961.949091 100.263455 
L 965.556364 98.088961 
L 969.163636 96.149353 
L 972.770909 94.446995 
L 976.378182 92.98396 
L 979.985455 91.762031 
L 983.592727 90.782696 
L 987.2 90.047149 
L 990.807273 89.556286 
L 994.414545 89.310705 
L 996.218182 89.28 
L 996.218182 89.28 
" clip-path="url(#p9c6ab1f278)" style="fill: none; stroke: #ff7f0e; stroke-width: 1.5; stroke-linecap: square"/>
   </g>
   <g id="patch_3">
    <path d="M 144 512.64 
L 144 69.12 
" style="fill: none; stroke: #000000; stroke-width: 0.8; stroke-linejoin: miter; stroke-linecap: square"/>
   </g>
   <g id="patch_4">
    <path d="M 1036.8 512.64 
L 1036.8 69.12 
" style="fill: none; stroke: #000000; stroke-width: 0.8; stroke-linejoin: miter; stroke-linecap: square"/>
   </g>
   <g id="patch_5">
    <path d="M 144 512.64 
L 1036.8 512.64 
" style="fill: none; stroke: #000000; stroke-width: 0.8; stroke-linejoin: miter; stroke-linecap: square"/>
   </g>
   <g id="patch_6">
    <path d="M 144 69.12 
L 1036.8 69.12 
" style="fill: none; stroke: #000000; stroke-width: 0.8; stroke-linejoin: miter; stroke-linecap: square"/>
   </g>
   <g id="legend_1">
    <g id="patch_7">
     <path d="M 151 105.62 
L 242.5 105.62 
Q 244.5 105.62 244.5 103.62 
L 244.5 76.12 
Q 244.5 74.12 242.5 74.12 
L 151 74.12 
Q 149 74.12 149 76.12 
L 149 103.62 
Q 149 105.62 151 105.62 
z
" style="fill: #ffffff; opacity: 0.8; stroke: #cccccc; stroke-linejoin: miter"/>
    </g>
    <g id="line2d_27">
     <path d="M 153 82.22 
L 163 82.22 
L 173 82.22 
" style="fill: none; stroke: #1f77b4; stroke-width: 1.5; stroke-linecap: square"/>
    </g>
    <g id="text_13">
     <!-- $sin(x)$ -->
     <g transform="translate(181 85.72)scale(0.1 -0.1)">
      <defs>
       <path id="DejaVuSans-Oblique-73" d="M 3200 3397 
L 3091 2853 
Q 2863 2978 2609 3040 
Q 2356 3103 2088 3103 
Q 1634 3103 1373 2948 
Q 1113 2794 1113 2528 
Q 1113 2219 1719 2053 
Q 1766 2041 1788 2034 
L 1972 1978 
Q 2547 1819 2739 1644 
Q 2931 1469 2931 1166 
Q 2931 609 2489 259 
Q 2047 -91 1331 -91 
Q 1053 -91 747 -37 
Q 441 16 72 128 
L 184 722 
Q 500 559 806 475 
Q 1113 391 1394 391 
Q 1816 391 2080 572 
Q 2344 753 2344 1031 
Q 2344 1331 1650 1516 
L 1591 1531 
L 1394 1581 
Q 956 1697 753 1886 
Q 550 2075 550 2369 
Q 550 2928 970 3256 
Q 1391 3584 2113 3584 
Q 2397 3584 2667 3537 
Q 2938 3491 3200 3397 
z
" transform="scale(0.015625)"/>
       <path id="DejaVuSans-Oblique-69" d="M 1172 4863 
L 1747 4863 
L 1606 4134 
L 1031 4134 
L 1172 4863 
z
M 909 3500 
L 1484 3500 
L 800 0 
L 225 0 
L 909 3500 
z
" transform="scale(0.015625)"/>
       <path id="DejaVuSans-Oblique-6e" d="M 3566 2113 
L 3156 0 
L 2578 0 
L 2988 2091 
Q 3016 2238 3031 2350 
Q 3047 2463 3047 2528 
Q 3047 2791 2881 2937 
Q 2716 3084 2419 3084 
Q 1956 3084 1622 2776 
Q 1288 2469 1184 1941 
L 800 0 
L 225 0 
L 903 3500 
L 1478 3500 
L 1363 2950 
Q 1603 3253 1940 3418 
Q 2278 3584 2650 3584 
Q 3113 3584 3367 3334 
Q 3622 3084 3622 2631 
Q 3622 2519 3608 2391 
Q 3594 2263 3566 2113 
z
" transform="scale(0.015625)"/>
       <path id="DejaVuSans-28" d="M 1984 4856 
Q 1566 4138 1362 3434 
Q 1159 2731 1159 2009 
Q 1159 1288 1364 580 
Q 1569 -128 1984 -844 
L 1484 -844 
Q 1016 -109 783 600 
Q 550 1309 550 2009 
Q 550 2706 781 3412 
Q 1013 4119 1484 4856 
L 1984 4856 
z
" transform="scale(0.015625)"/>
       <path id="DejaVuSans-Oblique-78" d="M 3841 3500 
L 2234 1784 
L 3219 0 
L 2559 0 
L 1819 1388 
L 531 0 
L -166 0 
L 1556 1844 
L 641 3500 
L 1300 3500 
L 1972 2234 
L 3144 3500 
L 3841 3500 
z
" transform="scale(0.015625)"/>
       <path id="DejaVuSans-29" d="M 513 4856 
L 1013 4856 
Q 1481 4119 1714 3412 
Q 1947 2706 1947 2009 
Q 1947 1309 1714 600 
Q 1481 -109 1013 -844 
L 513 -844 
Q 928 -128 1133 580 
Q 1338 1288 1338 2009 
Q 1338 2731 1133 3434 
Q 928 4138 513 4856 
z
" transform="scale(0.015625)"/>
      </defs>
      <use xlink:href="#DejaVuSans-Oblique-73" transform="translate(0 0.015625)"/>
      <use xlink:href="#DejaVuSans-Oblique-69" transform="translate(52.099609 0.015625)"/>
      <use xlink:href="#DejaVuSans-Oblique-6e" transform="translate(79.882812 0.015625)"/>
      <use xlink:href="#DejaVuSans-28" transform="translate(143.261719 0.015625)"/>
      <use xlink:href="#DejaVuSans-Oblique-78" transform="translate(182.275391 0.015625)"/>
      <use xlink:href="#DejaVuSans-29" transform="translate(241.455078 0.015625)"/>
     </g>
    </g>
    <g id="line2d_28">
     <path d="M 153 96.72 
L 163 96.72 
L 173 96.72 
" style="fill: none; stroke: #ff7f0e; stroke-width: 1.5; stroke-linecap: square"/>
    </g>
    <g id="text_14">
     <!-- $3sin(x)$ 振幅 -->
     <g transform="translate(181 100.22)scale(0.1 -0.1)">
      <defs>
       <path id="DejaVuSans-33" d="M 2597 2516 
Q 3050 2419 3304 2112 
Q 3559 1806 3559 1356 
Q 3559 666 3084 287 
Q 2609 -91 1734 -91 
Q 1441 -91 1130 -33 
Q 819 25 488 141 
L 488 750 
Q 750 597 1062 519 
Q 1375 441 1716 441 
Q 2309 441 2620 675 
Q 2931 909 2931 1356 
Q 2931 1769 2642 2001 
Q 2353 2234 1838 2234 
L 1294 2234 
L 1294 2753 
L 1863 2753 
Q 2328 2753 2575 2939 
Q 2822 3125 2822 3475 
Q 2822 3834 2567 4026 
Q 2313 4219 1838 4219 
Q 1578 4219 1281 4162 
Q 984 4106 628 3988 
L 628 4550 
Q 988 4650 1302 4700 
Q 1616 4750 1894 4750 
Q 2613 4750 3031 4423 
Q 3450 4097 3450 3541 
Q 3450 3153 3228 2886 
Q 3006 2619 2597 2516 
z
" transform="scale(0.015625)"/>
       <path id="SimHei-20" transform="scale(0.015625)"/>
       <path id="SimHei-632f" d="M 3275 -200 
Q 3400 -100 3437 37 
Q 3475 175 3475 500 
L 3475 2300 
L 3025 2300 
Q 3000 1800 2950 1375 
Q 2900 950 2800 600 
Q 2700 250 2575 -37 
Q 2450 -325 2325 -625 
Q 2175 -475 1825 -350 
Q 2150 -25 2300 412 
Q 2450 850 2500 1350 
Q 2550 1850 2562 2437 
Q 2575 3025 2575 3625 
Q 2575 4250 2525 4825 
L 5150 4825 
Q 5475 4825 5825 4850 
L 5825 4375 
Q 5400 4400 5225 4400 
L 3025 4400 
L 3025 2700 
L 5375 2700 
Q 5600 2700 5975 2725 
L 5975 2275 
Q 5850 2300 5475 2300 
L 4675 2300 
Q 4775 1600 4925 1275 
Q 5125 1450 5262 1587 
Q 5400 1725 5550 1975 
Q 5650 1775 5900 1575 
Q 5750 1500 5575 1337 
Q 5400 1175 5125 875 
Q 5225 650 5500 362 
Q 5775 75 6175 -75 
Q 5875 -250 5775 -525 
Q 5300 -175 5075 100 
Q 4850 375 4687 687 
Q 4525 1000 4412 1387 
Q 4300 1775 4250 2300 
L 3950 2300 
L 3950 150 
Q 4250 300 4575 475 
Q 4625 325 4750 50 
Q 4575 -25 4237 -212 
Q 3900 -400 3600 -650 
Q 3500 -450 3275 -200 
z
M 250 2000 
Q 550 2075 725 2125 
L 1150 2275 
L 1150 3350 
Q 675 3350 325 3325 
L 325 3800 
Q 650 3775 1150 3775 
L 1150 4500 
Q 1150 4850 1125 5150 
L 1675 5150 
Q 1650 4875 1650 4500 
L 1650 3775 
Q 1875 3775 2300 3800 
L 2300 3325 
Q 1900 3350 1650 3350 
L 1650 2425 
Q 2000 2550 2250 2675 
Q 2250 2475 2275 2250 
Q 2100 2200 1650 2000 
L 1650 100 
Q 1600 -250 1450 -362 
Q 1300 -475 725 -525 
Q 700 -325 600 25 
Q 850 0 1000 0 
Q 1150 0 1150 300 
L 1150 1800 
Q 975 1725 850 1662 
Q 725 1600 475 1450 
Q 425 1675 250 2000 
z
M 4950 3775 
Q 5275 3775 5600 3800 
L 5600 3325 
Q 5275 3350 5000 3350 
L 4000 3350 
Q 3725 3350 3375 3325 
L 3375 3800 
Q 3700 3775 4000 3775 
L 4950 3775 
z
" transform="scale(0.015625)"/>
       <path id="SimHei-5e45" d="M 5950 2250 
Q 5925 1875 5925 900 
Q 5925 -50 5950 -425 
L 5450 -425 
L 5450 -175 
L 3350 -175 
L 3350 -475 
L 2875 -475 
Q 2900 200 2900 1025 
Q 2900 1875 2875 2250 
L 5950 2250 
z
M 2575 1125 
Q 2575 800 2437 700 
Q 2300 600 1950 525 
Q 1900 800 1750 1000 
Q 1975 1000 2075 1037 
Q 2175 1075 2175 1300 
L 2175 3725 
L 1700 3725 
L 1700 475 
Q 1700 0 1725 -550 
L 1225 -550 
Q 1250 -25 1250 475 
L 1250 3725 
L 850 3725 
L 850 500 
L 400 500 
Q 425 1000 425 2300 
Q 425 3600 400 4100 
L 1250 4100 
L 1250 4500 
Q 1250 4825 1225 5175 
L 1725 5175 
Q 1700 4825 1700 4500 
L 1700 4100 
L 2600 4100 
Q 2575 3900 2575 3225 
L 2575 1125 
z
M 5575 3925 
Q 5550 3625 5550 3300 
Q 5550 2975 5575 2600 
L 3200 2600 
Q 3225 2975 3225 3300 
Q 3225 3625 3200 3925 
L 5575 3925 
z
M 5250 4800 
Q 5650 4800 6025 4825 
L 6025 4375 
Q 5650 4400 5250 4400 
L 3550 4400 
Q 3075 4400 2800 4375 
L 2800 4825 
Q 3075 4800 3550 4800 
L 5250 4800 
z
M 5150 2975 
L 5150 3575 
L 3625 3575 
L 3625 2975 
L 5150 2975 
z
M 5450 1225 
L 5450 1875 
L 4625 1875 
L 4625 1225 
L 5450 1225 
z
M 4175 200 
L 4175 850 
L 3350 850 
L 3350 200 
L 4175 200 
z
M 5450 200 
L 5450 850 
L 4625 850 
L 4625 200 
L 5450 200 
z
M 4175 1225 
L 4175 1875 
L 3350 1875 
L 3350 1225 
L 4175 1225 
z
" transform="scale(0.015625)"/>
      </defs>
      <use xlink:href="#DejaVuSans-33" transform="translate(0 0.140625)"/>
      <use xlink:href="#DejaVuSans-Oblique-73" transform="translate(63.623047 0.140625)"/>
      <use xlink:href="#DejaVuSans-Oblique-69" transform="translate(115.722656 0.140625)"/>
      <use xlink:href="#DejaVuSans-Oblique-6e" transform="translate(143.505859 0.140625)"/>
      <use xlink:href="#DejaVuSans-28" transform="translate(206.884766 0.140625)"/>
      <use xlink:href="#DejaVuSans-Oblique-78" transform="translate(245.898438 0.140625)"/>
      <use xlink:href="#DejaVuSans-29" transform="translate(305.078125 0.140625)"/>
      <use xlink:href="#SimHei-20" transform="translate(344.091797 0.140625)"/>
      <use xlink:href="#SimHei-632f" transform="translate(394.091797 0.140625)"/>
      <use xlink:href="#SimHei-5e45" transform="translate(494.091797 0.140625)"/>
     </g>
    </g>
   </g>
  </g>
 </g>
 <defs>
  <clipPath id="p9c6ab1f278">
   <rect x="144" y="69.12" width="892.8" height="443.52"/>
  </clipPath>
 </defs>
</svg>
