<?xml version="1.0" encoding="utf-8" standalone="no"?>
<!DOCTYPE svg PUBLIC "-//W3C//DTD SVG 1.1//EN"
  "http://www.w3.org/Graphics/SVG/1.1/DTD/svg11.dtd">
<svg xmlns:xlink="http://www.w3.org/1999/xlink" width="1152pt" height="576pt" viewBox="0 0 1152 576" xmlns="http://www.w3.org/2000/svg" version="1.1">
 <metadata>
  <rdf:RDF xmlns:dc="http://purl.org/dc/elements/1.1/" xmlns:cc="http://creativecommons.org/ns#" xmlns:rdf="http://www.w3.org/1999/02/22-rdf-syntax-ns#">
   <cc:Work>
    <dc:type rdf:resource="http://purl.org/dc/dcmitype/StillImage"/>
    <dc:date>2024-09-06T09:15:55.179705</dc:date>
    <dc:format>image/svg+xml</dc:format>
    <dc:creator>
     <cc:Agent>
      <dc:title>Matplotlib v3.5.3, https://matplotlib.org/</dc:title>
     </cc:Agent>
    </dc:creator>
   </cc:Work>
  </rdf:RDF>
 </metadata>
 <defs>
  <style type="text/css">*{stroke-linejoin: round; stroke-linecap: butt}</style>
 </defs>
 <g id="figure_1">
  <g id="patch_1">
   <path d="M 0 576 
L 1152 576 
L 1152 0 
L 0 0 
z
" style="fill: #ffffff"/>
  </g>
  <g id="axes_1">
   <g id="patch_2">
    <path d="M 144 512.64 
L 1036.8 512.64 
L 1036.8 69.12 
L 144 69.12 
z
" style="fill: #ffffff"/>
   </g>
   <g id="matplotlib.axis_1">
    <g id="xtick_1">
     <g id="line2d_1">
      <path d="M 184.581818 512.64 
L 184.581818 69.12 
" clip-path="url(#p1c7d39b823)" style="fill: none; stroke: #b0b0b0; stroke-opacity: 0.9; stroke-width: 0.8; stroke-linecap: square"/>
     </g>
     <g id="line2d_2">
      <defs>
       <path id="m2187537495" d="M 0 0 
L 0 3.5 
" style="stroke: #000000; stroke-width: 0.8"/>
      </defs>
      <g>
       <use xlink:href="#m2187537495" x="184.581818" y="512.64" style="stroke: #000000; stroke-width: 0.8"/>
      </g>
     </g>
     <g id="text_1">
      <!-- 0 -->
      <g transform="translate(182.081818 526.515)scale(0.1 -0.1)">
       <defs>
        <path id="SimHei-30" d="M 225 2537 
Q 250 3200 412 3587 
Q 575 3975 875 4225 
Q 1175 4475 1612 4475 
Q 2050 4475 2375 4112 
Q 2700 3750 2800 3200 
Q 2900 2650 2862 1937 
Q 2825 1225 2612 775 
Q 2400 325 1975 150 
Q 1550 -25 1125 187 
Q 700 400 525 750 
Q 350 1100 275 1487 
Q 200 1875 225 2537 
z
M 750 2687 
Q 675 2000 800 1462 
Q 925 925 1212 700 
Q 1500 475 1800 612 
Q 2100 750 2237 1162 
Q 2375 1575 2375 2062 
Q 2375 2550 2337 2950 
Q 2300 3350 2112 3675 
Q 1925 4000 1612 4012 
Q 1300 4025 1062 3700 
Q 825 3375 750 2687 
z
" transform="scale(0.015625)"/>
       </defs>
       <use xlink:href="#SimHei-30"/>
      </g>
     </g>
    </g>
    <g id="xtick_2">
     <g id="line2d_3">
      <path d="M 346.909091 512.64 
L 346.909091 69.12 
" clip-path="url(#p1c7d39b823)" style="fill: none; stroke: #b0b0b0; stroke-opacity: 0.9; stroke-width: 0.8; stroke-linecap: square"/>
     </g>
     <g id="line2d_4">
      <g>
       <use xlink:href="#m2187537495" x="346.909091" y="512.64" style="stroke: #000000; stroke-width: 0.8"/>
      </g>
     </g>
     <g id="text_2">
      <!-- 90 -->
      <g transform="translate(341.909091 526.515)scale(0.1 -0.1)">
       <defs>
        <path id="SimHei-39" d="M 800 75 
Q 1350 1000 1700 1750 
Q 1075 1650 662 1912 
Q 250 2175 162 2625 
Q 75 3075 175 3437 
Q 275 3800 487 4037 
Q 700 4275 1000 4375 
Q 1300 4475 1537 4475 
Q 1775 4475 2025 4375 
Q 2275 4275 2475 4075 
Q 2675 3875 2750 3662 
Q 2825 3450 2825 3112 
Q 2825 2775 2575 2250 
Q 2325 1725 1350 75 
L 800 75 
z
M 662 2875 
Q 700 2550 937 2337 
Q 1175 2125 1450 2150 
Q 1725 2175 1887 2300 
Q 2050 2425 2200 2725 
Q 2300 3100 2250 3362 
Q 2200 3625 1987 3800 
Q 1775 3975 1525 3975 
Q 1375 4000 1137 3900 
Q 900 3800 762 3500 
Q 625 3200 662 2875 
z
" transform="scale(0.015625)"/>
       </defs>
       <use xlink:href="#SimHei-39"/>
       <use xlink:href="#SimHei-30" x="50"/>
      </g>
     </g>
    </g>
    <g id="xtick_3">
     <g id="line2d_5">
      <path d="M 509.236364 512.64 
L 509.236364 69.12 
" clip-path="url(#p1c7d39b823)" style="fill: none; stroke: #b0b0b0; stroke-opacity: 0.9; stroke-width: 0.8; stroke-linecap: square"/>
     </g>
     <g id="line2d_6">
      <g>
       <use xlink:href="#m2187537495" x="509.236364" y="512.64" style="stroke: #000000; stroke-width: 0.8"/>
      </g>
     </g>
     <g id="text_3">
      <!-- 180 -->
      <g transform="translate(501.736364 526.515)scale(0.1 -0.1)">
       <defs>
        <path id="SimHei-31" d="M 1400 3600 
Q 1075 3275 575 2975 
L 575 3450 
Q 1200 3875 1600 4450 
L 1900 4450 
L 1900 150 
L 1400 150 
L 1400 3600 
z
" transform="scale(0.015625)"/>
        <path id="SimHei-38" d="M 175 1375 
Q 175 1675 325 1962 
Q 475 2250 825 2425 
Q 525 2600 425 2812 
Q 325 3025 312 3300 
Q 300 3575 387 3775 
Q 475 3975 650 4150 
Q 825 4325 1037 4387 
Q 1250 4450 1500 4450 
Q 1750 4450 1950 4400 
Q 2150 4350 2375 4187 
Q 2600 4025 2700 3725 
Q 2800 3425 2687 3025 
Q 2575 2625 2100 2400 
Q 2525 2275 2700 2012 
Q 2875 1750 2875 1375 
Q 2875 1000 2762 775 
Q 2650 550 2512 400 
Q 2375 250 2137 162 
Q 1900 75 1537 75 
Q 1175 75 912 162 
Q 650 250 475 425 
Q 300 600 237 837 
Q 175 1075 175 1375 
z
M 687 1400 
Q 675 1100 787 875 
Q 900 650 1200 587 
Q 1500 525 1825 600 
Q 2150 675 2275 950 
Q 2400 1225 2362 1500 
Q 2325 1775 2050 1962 
Q 1775 2150 1450 2125 
Q 1125 2100 912 1900 
Q 700 1700 687 1400 
z
M 775 3350 
Q 775 3100 950 2875 
Q 1125 2650 1500 2650 
Q 1875 2650 2062 2875 
Q 2250 3100 2237 3412 
Q 2225 3725 2012 3875 
Q 1800 4025 1437 4000 
Q 1075 3975 925 3787 
Q 775 3600 775 3350 
z
" transform="scale(0.015625)"/>
       </defs>
       <use xlink:href="#SimHei-31"/>
       <use xlink:href="#SimHei-38" x="50"/>
       <use xlink:href="#SimHei-30" x="100"/>
      </g>
     </g>
    </g>
    <g id="xtick_4">
     <g id="line2d_7">
      <path d="M 671.563636 512.64 
L 671.563636 69.12 
" clip-path="url(#p1c7d39b823)" style="fill: none; stroke: #b0b0b0; stroke-opacity: 0.9; stroke-width: 0.8; stroke-linecap: square"/>
     </g>
     <g id="line2d_8">
      <g>
       <use xlink:href="#m2187537495" x="671.563636" y="512.64" style="stroke: #000000; stroke-width: 0.8"/>
      </g>
     </g>
     <g id="text_4">
      <!-- 270 -->
      <g transform="translate(664.063636 526.515)scale(0.1 -0.1)">
       <defs>
        <path id="SimHei-32" d="M 300 250 
Q 325 625 650 925 
Q 975 1225 1475 1862 
Q 1975 2500 2125 2850 
Q 2275 3200 2237 3450 
Q 2200 3700 2000 3862 
Q 1800 4025 1537 4000 
Q 1275 3975 1037 3800 
Q 800 3625 675 3275 
L 200 3350 
Q 400 3925 712 4187 
Q 1025 4450 1450 4475 
Q 1700 4500 1900 4462 
Q 2100 4425 2312 4287 
Q 2525 4150 2662 3875 
Q 2800 3600 2762 3212 
Q 2725 2825 2375 2287 
Q 2025 1750 1025 600 
L 2825 600 
L 2825 150 
L 300 150 
L 300 250 
z
" transform="scale(0.015625)"/>
        <path id="SimHei-37" d="M 850 150 
Q 1300 2050 2425 3925 
L 275 3925 
L 275 4375 
L 2950 4375 
L 2950 3950 
Q 1775 2050 1400 150 
L 850 150 
z
" transform="scale(0.015625)"/>
       </defs>
       <use xlink:href="#SimHei-32"/>
       <use xlink:href="#SimHei-37" x="50"/>
       <use xlink:href="#SimHei-30" x="100"/>
      </g>
     </g>
    </g>
    <g id="xtick_5">
     <g id="line2d_9">
      <path d="M 833.890909 512.64 
L 833.890909 69.12 
" clip-path="url(#p1c7d39b823)" style="fill: none; stroke: #b0b0b0; stroke-opacity: 0.9; stroke-width: 0.8; stroke-linecap: square"/>
     </g>
     <g id="line2d_10">
      <g>
       <use xlink:href="#m2187537495" x="833.890909" y="512.64" style="stroke: #000000; stroke-width: 0.8"/>
      </g>
     </g>
     <g id="text_5">
      <!-- 360 -->
      <g transform="translate(826.390909 526.515)scale(0.1 -0.1)">
       <defs>
        <path id="SimHei-33" d="M 250 1225 
L 700 1300 
Q 800 975 1025 762 
Q 1250 550 1587 562 
Q 1925 575 2125 837 
Q 2325 1100 2300 1437 
Q 2275 1775 2037 1962 
Q 1800 2150 1275 2225 
L 1275 2550 
Q 1800 2600 2037 2825 
Q 2275 3050 2250 3412 
Q 2225 3775 1925 3937 
Q 1625 4100 1287 3975 
Q 950 3850 750 3275 
L 300 3350 
Q 450 3800 712 4100 
Q 975 4400 1425 4450 
Q 1875 4500 2212 4337 
Q 2550 4175 2687 3837 
Q 2825 3500 2725 3100 
Q 2625 2700 2150 2400 
Q 2500 2250 2687 1950 
Q 2875 1650 2812 1162 
Q 2750 675 2375 375 
Q 2000 75 1525 87 
Q 1050 100 700 387 
Q 350 675 250 1225 
z
" transform="scale(0.015625)"/>
        <path id="SimHei-36" d="M 250 1612 
Q 275 1975 387 2225 
Q 500 2475 725 2850 
L 1750 4450 
L 2325 4450 
L 1275 2800 
Q 1950 2975 2350 2750 
Q 2750 2525 2887 2237 
Q 3025 1950 3037 1612 
Q 3050 1275 2937 950 
Q 2825 625 2537 362 
Q 2250 100 1737 75 
Q 1225 50 862 262 
Q 500 475 362 862 
Q 225 1250 250 1612 
z
M 1025 787 
Q 1250 550 1625 525 
Q 2000 500 2250 775 
Q 2500 1050 2500 1575 
Q 2500 2100 2187 2300 
Q 1875 2500 1487 2450 
Q 1100 2400 925 2075 
Q 750 1750 775 1387 
Q 800 1025 1025 787 
z
" transform="scale(0.015625)"/>
       </defs>
       <use xlink:href="#SimHei-33"/>
       <use xlink:href="#SimHei-36" x="50"/>
       <use xlink:href="#SimHei-30" x="100"/>
      </g>
     </g>
    </g>
   </g>
   <g id="matplotlib.axis_2">
    <g id="ytick_1">
     <g id="line2d_11">
      <path d="M 144 492.48 
L 1036.8 492.48 
" clip-path="url(#p1c7d39b823)" style="fill: none; stroke: #b0b0b0; stroke-opacity: 0.9; stroke-width: 0.8; stroke-linecap: square"/>
     </g>
     <g id="line2d_12">
      <defs>
       <path id="m368f0a609d" d="M 0 0 
L -3.5 0 
" style="stroke: #000000; stroke-width: 0.8"/>
      </defs>
      <g>
       <use xlink:href="#m368f0a609d" x="144" y="492.48" style="stroke: #000000; stroke-width: 0.8"/>
      </g>
     </g>
     <g id="text_6">
      <!-- -1.00 -->
      <g transform="translate(112 495.9175)scale(0.1 -0.1)">
       <defs>
        <path id="SimHei-2d" d="M 2975 2125 
L 125 2125 
L 125 2525 
L 2975 2525 
L 2975 2125 
z
" transform="scale(0.015625)"/>
        <path id="SimHei-2e" d="M 1075 125 
L 500 125 
L 500 675 
L 1075 675 
L 1075 125 
z
" transform="scale(0.015625)"/>
       </defs>
       <use xlink:href="#SimHei-2d"/>
       <use xlink:href="#SimHei-31" x="50"/>
       <use xlink:href="#SimHei-2e" x="100"/>
       <use xlink:href="#SimHei-30" x="150"/>
       <use xlink:href="#SimHei-30" x="200"/>
      </g>
     </g>
    </g>
    <g id="ytick_2">
     <g id="line2d_13">
      <path d="M 144 442.08 
L 1036.8 442.08 
" clip-path="url(#p1c7d39b823)" style="fill: none; stroke: #b0b0b0; stroke-opacity: 0.9; stroke-width: 0.8; stroke-linecap: square"/>
     </g>
     <g id="line2d_14">
      <g>
       <use xlink:href="#m368f0a609d" x="144" y="442.08" style="stroke: #000000; stroke-width: 0.8"/>
      </g>
     </g>
     <g id="text_7">
      <!-- -0.75 -->
      <g transform="translate(112 445.5175)scale(0.1 -0.1)">
       <defs>
        <path id="SimHei-35" d="M 550 1325 
Q 725 650 1150 575 
Q 1575 500 1837 662 
Q 2100 825 2212 1087 
Q 2325 1350 2312 1675 
Q 2300 2000 2137 2225 
Q 1975 2450 1725 2525 
Q 1475 2600 1162 2525 
Q 850 2450 650 2175 
L 225 2225 
Q 275 2375 700 4375 
L 2675 4375 
L 2675 3925 
L 1075 3925 
Q 950 3250 825 2850 
Q 1200 3025 1525 3012 
Q 1850 3000 2150 2862 
Q 2450 2725 2587 2487 
Q 2725 2250 2787 2012 
Q 2850 1775 2837 1500 
Q 2825 1225 2725 937 
Q 2625 650 2425 462 
Q 2225 275 1937 162 
Q 1650 50 1275 75 
Q 900 100 562 350 
Q 225 600 100 1200 
L 550 1325 
z
" transform="scale(0.015625)"/>
       </defs>
       <use xlink:href="#SimHei-2d"/>
       <use xlink:href="#SimHei-30" x="50"/>
       <use xlink:href="#SimHei-2e" x="100"/>
       <use xlink:href="#SimHei-37" x="150"/>
       <use xlink:href="#SimHei-35" x="200"/>
      </g>
     </g>
    </g>
    <g id="ytick_3">
     <g id="line2d_15">
      <path d="M 144 391.68 
L 1036.8 391.68 
" clip-path="url(#p1c7d39b823)" style="fill: none; stroke: #b0b0b0; stroke-opacity: 0.9; stroke-width: 0.8; stroke-linecap: square"/>
     </g>
     <g id="line2d_16">
      <g>
       <use xlink:href="#m368f0a609d" x="144" y="391.68" style="stroke: #000000; stroke-width: 0.8"/>
      </g>
     </g>
     <g id="text_8">
      <!-- -0.50 -->
      <g transform="translate(112 395.1175)scale(0.1 -0.1)">
       <use xlink:href="#SimHei-2d"/>
       <use xlink:href="#SimHei-30" x="50"/>
       <use xlink:href="#SimHei-2e" x="100"/>
       <use xlink:href="#SimHei-35" x="150"/>
       <use xlink:href="#SimHei-30" x="200"/>
      </g>
     </g>
    </g>
    <g id="ytick_4">
     <g id="line2d_17">
      <path d="M 144 341.28 
L 1036.8 341.28 
" clip-path="url(#p1c7d39b823)" style="fill: none; stroke: #b0b0b0; stroke-opacity: 0.9; stroke-width: 0.8; stroke-linecap: square"/>
     </g>
     <g id="line2d_18">
      <g>
       <use xlink:href="#m368f0a609d" x="144" y="341.28" style="stroke: #000000; stroke-width: 0.8"/>
      </g>
     </g>
     <g id="text_9">
      <!-- -0.25 -->
      <g transform="translate(112 344.7175)scale(0.1 -0.1)">
       <use xlink:href="#SimHei-2d"/>
       <use xlink:href="#SimHei-30" x="50"/>
       <use xlink:href="#SimHei-2e" x="100"/>
       <use xlink:href="#SimHei-32" x="150"/>
       <use xlink:href="#SimHei-35" x="200"/>
      </g>
     </g>
    </g>
    <g id="ytick_5">
     <g id="line2d_19">
      <path d="M 144 290.88 
L 1036.8 290.88 
" clip-path="url(#p1c7d39b823)" style="fill: none; stroke: #b0b0b0; stroke-opacity: 0.9; stroke-width: 0.8; stroke-linecap: square"/>
     </g>
     <g id="line2d_20">
      <g>
       <use xlink:href="#m368f0a609d" x="144" y="290.88" style="stroke: #000000; stroke-width: 0.8"/>
      </g>
     </g>
     <g id="text_10">
      <!-- 0.00 -->
      <g transform="translate(117 294.3175)scale(0.1 -0.1)">
       <use xlink:href="#SimHei-30"/>
       <use xlink:href="#SimHei-2e" x="50"/>
       <use xlink:href="#SimHei-30" x="100"/>
       <use xlink:href="#SimHei-30" x="150"/>
      </g>
     </g>
    </g>
    <g id="ytick_6">
     <g id="line2d_21">
      <path d="M 144 240.48 
L 1036.8 240.48 
" clip-path="url(#p1c7d39b823)" style="fill: none; stroke: #b0b0b0; stroke-opacity: 0.9; stroke-width: 0.8; stroke-linecap: square"/>
     </g>
     <g id="line2d_22">
      <g>
       <use xlink:href="#m368f0a609d" x="144" y="240.48" style="stroke: #000000; stroke-width: 0.8"/>
      </g>
     </g>
     <g id="text_11">
      <!-- 0.25 -->
      <g transform="translate(117 243.9175)scale(0.1 -0.1)">
       <use xlink:href="#SimHei-30"/>
       <use xlink:href="#SimHei-2e" x="50"/>
       <use xlink:href="#SimHei-32" x="100"/>
       <use xlink:href="#SimHei-35" x="150"/>
      </g>
     </g>
    </g>
    <g id="ytick_7">
     <g id="line2d_23">
      <path d="M 144 190.08 
L 1036.8 190.08 
" clip-path="url(#p1c7d39b823)" style="fill: none; stroke: #b0b0b0; stroke-opacity: 0.9; stroke-width: 0.8; stroke-linecap: square"/>
     </g>
     <g id="line2d_24">
      <g>
       <use xlink:href="#m368f0a609d" x="144" y="190.08" style="stroke: #000000; stroke-width: 0.8"/>
      </g>
     </g>
     <g id="text_12">
      <!-- 0.50 -->
      <g transform="translate(117 193.5175)scale(0.1 -0.1)">
       <use xlink:href="#SimHei-30"/>
       <use xlink:href="#SimHei-2e" x="50"/>
       <use xlink:href="#SimHei-35" x="100"/>
       <use xlink:href="#SimHei-30" x="150"/>
      </g>
     </g>
    </g>
    <g id="ytick_8">
     <g id="line2d_25">
      <path d="M 144 139.68 
L 1036.8 139.68 
" clip-path="url(#p1c7d39b823)" style="fill: none; stroke: #b0b0b0; stroke-opacity: 0.9; stroke-width: 0.8; stroke-linecap: square"/>
     </g>
     <g id="line2d_26">
      <g>
       <use xlink:href="#m368f0a609d" x="144" y="139.68" style="stroke: #000000; stroke-width: 0.8"/>
      </g>
     </g>
     <g id="text_13">
      <!-- 0.75 -->
      <g transform="translate(117 143.1175)scale(0.1 -0.1)">
       <use xlink:href="#SimHei-30"/>
       <use xlink:href="#SimHei-2e" x="50"/>
       <use xlink:href="#SimHei-37" x="100"/>
       <use xlink:href="#SimHei-35" x="150"/>
      </g>
     </g>
    </g>
    <g id="ytick_9">
     <g id="line2d_27">
      <path d="M 144 89.28 
L 1036.8 89.28 
" clip-path="url(#p1c7d39b823)" style="fill: none; stroke: #b0b0b0; stroke-opacity: 0.9; stroke-width: 0.8; stroke-linecap: square"/>
     </g>
     <g id="line2d_28">
      <g>
       <use xlink:href="#m368f0a609d" x="144" y="89.28" style="stroke: #000000; stroke-width: 0.8"/>
      </g>
     </g>
     <g id="text_14">
      <!-- 1.00 -->
      <g transform="translate(117 92.7175)scale(0.1 -0.1)">
       <use xlink:href="#SimHei-31"/>
       <use xlink:href="#SimHei-2e" x="50"/>
       <use xlink:href="#SimHei-30" x="100"/>
       <use xlink:href="#SimHei-30" x="150"/>
      </g>
     </g>
    </g>
   </g>
   <g id="line2d_29">
    <path d="M 184.581818 290.88 
L 204.421818 252.412907 
L 215.243636 231.937864 
L 224.261818 215.359311 
L 231.476364 202.504377 
L 238.690909 190.08 
L 245.905455 178.146711 
L 251.316364 169.554091 
L 256.727273 161.294018 
L 262.138182 153.389131 
L 267.549091 145.861096 
L 272.96 138.730549 
L 278.370909 132.017032 
L 283.781818 125.738948 
L 289.192727 119.913504 
L 294.603636 114.556667 
L 298.210909 111.253085 
L 301.818182 108.16835 
L 305.425455 105.306222 
L 309.032727 102.670186 
L 312.64 100.263455 
L 316.247273 98.088961 
L 319.854545 96.149353 
L 323.461818 94.446995 
L 327.069091 92.98396 
L 330.676364 91.762031 
L 334.283636 90.782696 
L 337.890909 90.047149 
L 341.498182 89.556286 
L 345.105455 89.310705 
L 348.712727 89.310705 
L 352.32 89.556286 
L 355.927273 90.047149 
L 359.534545 90.782696 
L 363.141818 91.762031 
L 366.749091 92.98396 
L 370.356364 94.446995 
L 373.963636 96.149353 
L 377.570909 98.088961 
L 381.178182 100.263455 
L 384.785455 102.670186 
L 388.392727 105.306222 
L 392 108.16835 
L 395.607273 111.253085 
L 399.214545 114.556667 
L 402.821818 118.075072 
L 408.232727 123.746025 
L 413.643636 129.875081 
L 419.054545 136.44544 
L 424.465455 143.439094 
L 429.876364 150.836873 
L 435.287273 158.6185 
L 440.698182 166.762647 
L 446.109091 175.24699 
L 453.323636 187.048324 
L 460.538182 199.355515 
L 467.752727 212.108604 
L 476.770909 228.582174 
L 485.789091 245.529867 
L 498.414545 269.807062 
L 534.487273 339.651454 
L 543.505455 356.51454 
L 552.523636 372.878107 
L 559.738182 385.525467 
L 566.952727 397.711724 
L 574.167273 409.377507 
L 579.578182 417.750991 
L 584.989091 425.77673 
L 590.4 433.432727 
L 595.810909 440.697997 
L 601.221818 447.552626 
L 606.632727 453.977826 
L 612.043636 459.955986 
L 617.454545 465.470721 
L 621.061818 468.882235 
L 624.669091 472.07688 
L 628.276364 475.050764 
L 631.883636 477.800265 
L 635.490909 480.322032 
L 639.098182 482.612994 
L 642.705455 484.670358 
L 646.312727 486.491618 
L 649.92 488.074556 
L 653.527273 489.417243 
L 657.134545 490.518043 
L 660.741818 491.375614 
L 664.349091 491.988913 
L 667.956364 492.357191 
L 671.563636 492.48 
L 675.170909 492.357191 
L 678.778182 491.988913 
L 682.385455 491.375614 
L 685.992727 490.518043 
L 689.6 489.417243 
L 693.207273 488.074556 
L 696.814545 486.491618 
L 700.421818 484.670358 
L 704.029091 482.612994 
L 707.636364 480.322032 
L 711.243636 477.800265 
L 714.850909 475.050764 
L 718.458182 472.07688 
L 722.065455 468.882235 
L 725.672727 465.470721 
L 729.28 461.846496 
L 734.690909 456.021052 
L 740.101818 449.742968 
L 745.512727 443.029451 
L 750.923636 435.898904 
L 756.334545 428.370869 
L 761.745455 420.465982 
L 767.156364 412.205909 
L 772.567273 403.613289 
L 779.781818 391.68 
L 786.996364 379.255623 
L 794.210909 366.400689 
L 803.229091 349.822136 
L 814.050909 329.347093 
L 828.48 301.430929 
L 853.730909 252.412907 
L 864.552727 231.937864 
L 873.570909 215.359311 
L 880.785455 202.504377 
L 888 190.08 
L 895.214545 178.146711 
L 900.625455 169.554091 
L 906.036364 161.294018 
L 911.447273 153.389131 
L 916.858182 145.861096 
L 922.269091 138.730549 
L 927.68 132.017032 
L 933.090909 125.738948 
L 938.501818 119.913504 
L 943.912727 114.556667 
L 947.52 111.253085 
L 951.127273 108.16835 
L 954.734545 105.306222 
L 958.341818 102.670186 
L 961.949091 100.263455 
L 965.556364 98.088961 
L 969.163636 96.149353 
L 972.770909 94.446995 
L 976.378182 92.98396 
L 979.985455 91.762031 
L 983.592727 90.782696 
L 987.2 90.047149 
L 990.807273 89.556286 
L 994.414545 89.310705 
L 996.218182 89.28 
L 996.218182 89.28 
" clip-path="url(#p1c7d39b823)" style="fill: none; stroke: #1f77b4; stroke-width: 1.5; stroke-linecap: square"/>
   </g>
   <g id="line2d_30">
    <path d="M 184.581818 492.48 
L 188.189091 492.357191 
L 191.796364 491.988913 
L 195.403636 491.375614 
L 199.010909 490.518043 
L 202.618182 489.417243 
L 206.225455 488.074556 
L 209.832727 486.491618 
L 213.44 484.670358 
L 217.047273 482.612994 
L 220.654545 480.322032 
L 224.261818 477.800265 
L 227.869091 475.050764 
L 231.476364 472.07688 
L 235.083636 468.882235 
L 238.690909 465.470721 
L 242.298182 461.846496 
L 247.709091 456.021052 
L 253.12 449.742968 
L 258.530909 443.029451 
L 263.941818 435.898904 
L 269.352727 428.370869 
L 274.763636 420.465982 
L 280.174545 412.205909 
L 285.585455 403.613289 
L 292.8 391.68 
L 300.014545 379.255623 
L 307.229091 366.400689 
L 316.247273 349.822136 
L 327.069091 329.347093 
L 341.498182 301.430929 
L 366.749091 252.412907 
L 377.570909 231.937864 
L 386.589091 215.359311 
L 393.803636 202.504377 
L 401.018182 190.08 
L 408.232727 178.146711 
L 413.643636 169.554091 
L 419.054545 161.294018 
L 424.465455 153.389131 
L 429.876364 145.861096 
L 435.287273 138.730549 
L 440.698182 132.017032 
L 446.109091 125.738948 
L 451.52 119.913504 
L 456.930909 114.556667 
L 460.538182 111.253085 
L 464.145455 108.16835 
L 467.752727 105.306222 
L 471.36 102.670186 
L 474.967273 100.263455 
L 478.574545 98.088961 
L 482.181818 96.149353 
L 485.789091 94.446995 
L 489.396364 92.98396 
L 493.003636 91.762031 
L 496.610909 90.782696 
L 500.218182 90.047149 
L 503.825455 89.556286 
L 507.432727 89.310705 
L 511.04 89.310705 
L 514.647273 89.556286 
L 518.254545 90.047149 
L 521.861818 90.782696 
L 525.469091 91.762031 
L 529.076364 92.98396 
L 532.683636 94.446995 
L 536.290909 96.149353 
L 539.898182 98.088961 
L 543.505455 100.263455 
L 547.112727 102.670186 
L 550.72 105.306222 
L 554.327273 108.16835 
L 557.934545 111.253085 
L 561.541818 114.556667 
L 565.149091 118.075072 
L 570.56 123.746025 
L 575.970909 129.875081 
L 581.381818 136.44544 
L 586.792727 143.439094 
L 592.203636 150.836873 
L 597.614545 158.6185 
L 603.025455 166.762647 
L 608.436364 175.24699 
L 615.650909 187.048324 
L 622.865455 199.355515 
L 630.08 212.108604 
L 639.098182 228.582174 
L 648.116364 245.529867 
L 660.741818 269.807062 
L 696.814545 339.651454 
L 705.832727 356.51454 
L 714.850909 372.878107 
L 722.065455 385.525467 
L 729.28 397.711724 
L 736.494545 409.377507 
L 741.905455 417.750991 
L 747.316364 425.77673 
L 752.727273 433.432727 
L 758.138182 440.697997 
L 763.549091 447.552626 
L 768.96 453.977826 
L 774.370909 459.955986 
L 779.781818 465.470721 
L 783.389091 468.882235 
L 786.996364 472.07688 
L 790.603636 475.050764 
L 794.210909 477.800265 
L 797.818182 480.322032 
L 801.425455 482.612994 
L 805.032727 484.670358 
L 808.64 486.491618 
L 812.247273 488.074556 
L 815.854545 489.417243 
L 819.461818 490.518043 
L 823.069091 491.375614 
L 826.676364 491.988913 
L 830.283636 492.357191 
L 833.890909 492.48 
L 837.498182 492.357191 
L 841.105455 491.988913 
L 844.712727 491.375614 
L 848.32 490.518043 
L 851.927273 489.417243 
L 855.534545 488.074556 
L 859.141818 486.491618 
L 862.749091 484.670358 
L 866.356364 482.612994 
L 869.963636 480.322032 
L 873.570909 477.800265 
L 877.178182 475.050764 
L 880.785455 472.07688 
L 884.392727 468.882235 
L 888 465.470721 
L 891.607273 461.846496 
L 897.018182 456.021052 
L 902.429091 449.742968 
L 907.84 443.029451 
L 913.250909 435.898904 
L 918.661818 428.370869 
L 924.072727 420.465982 
L 929.483636 412.205909 
L 934.894545 403.613289 
L 942.109091 391.68 
L 949.323636 379.255623 
L 956.538182 366.400689 
L 965.556364 349.822136 
L 976.378182 329.347093 
L 990.807273 301.430929 
L 996.218182 290.88 
L 996.218182 290.88 
" clip-path="url(#p1c7d39b823)" style="fill: none; stroke: #ff7f0e; stroke-width: 1.5; stroke-linecap: square"/>
   </g>
   <g id="patch_3">
    <path d="M 144 512.64 
L 144 69.12 
" style="fill: none; stroke: #000000; stroke-width: 0.8; stroke-linejoin: miter; stroke-linecap: square"/>
   </g>
   <g id="patch_4">
    <path d="M 1036.8 512.64 
L 1036.8 69.12 
" style="fill: none; stroke: #000000; stroke-width: 0.8; stroke-linejoin: miter; stroke-linecap: square"/>
   </g>
   <g id="patch_5">
    <path d="M 144 512.64 
L 1036.8 512.64 
" style="fill: none; stroke: #000000; stroke-width: 0.8; stroke-linejoin: miter; stroke-linecap: square"/>
   </g>
   <g id="patch_6">
    <path d="M 144 69.12 
L 1036.8 69.12 
" style="fill: none; stroke: #000000; stroke-width: 0.8; stroke-linejoin: miter; stroke-linecap: square"/>
   </g>
   <g id="legend_1">
    <g id="patch_7">
     <path d="M 151 108.52 
L 254.1 108.52 
Q 256.1 108.52 256.1 106.52 
L 256.1 76.12 
Q 256.1 74.12 254.1 74.12 
L 151 74.12 
Q 149 74.12 149 76.12 
L 149 106.52 
Q 149 108.52 151 108.52 
z
" style="fill: #ffffff; opacity: 0.8; stroke: #cccccc; stroke-linejoin: miter"/>
    </g>
    <g id="line2d_31">
     <path d="M 153 82.22 
L 163 82.22 
L 173 82.22 
" style="fill: none; stroke: #1f77b4; stroke-width: 1.5; stroke-linecap: square"/>
    </g>
    <g id="text_15">
     <!-- $sin(x)$ -->
     <g transform="translate(181 85.72)scale(0.1 -0.1)">
      <defs>
       <path id="DejaVuSans-Oblique-73" d="M 3200 3397 
L 3091 2853 
Q 2863 2978 2609 3040 
Q 2356 3103 2088 3103 
Q 1634 3103 1373 2948 
Q 1113 2794 1113 2528 
Q 1113 2219 1719 2053 
Q 1766 2041 1788 2034 
L 1972 1978 
Q 2547 1819 2739 1644 
Q 2931 1469 2931 1166 
Q 2931 609 2489 259 
Q 2047 -91 1331 -91 
Q 1053 -91 747 -37 
Q 441 16 72 128 
L 184 722 
Q 500 559 806 475 
Q 1113 391 1394 391 
Q 1816 391 2080 572 
Q 2344 753 2344 1031 
Q 2344 1331 1650 1516 
L 1591 1531 
L 1394 1581 
Q 956 1697 753 1886 
Q 550 2075 550 2369 
Q 550 2928 970 3256 
Q 1391 3584 2113 3584 
Q 2397 3584 2667 3537 
Q 2938 3491 3200 3397 
z
" transform="scale(0.015625)"/>
       <path id="DejaVuSans-Oblique-69" d="M 1172 4863 
L 1747 4863 
L 1606 4134 
L 1031 4134 
L 1172 4863 
z
M 909 3500 
L 1484 3500 
L 800 0 
L 225 0 
L 909 3500 
z
" transform="scale(0.015625)"/>
       <path id="DejaVuSans-Oblique-6e" d="M 3566 2113 
L 3156 0 
L 2578 0 
L 2988 2091 
Q 3016 2238 3031 2350 
Q 3047 2463 3047 2528 
Q 3047 2791 2881 2937 
Q 2716 3084 2419 3084 
Q 1956 3084 1622 2776 
Q 1288 2469 1184 1941 
L 800 0 
L 225 0 
L 903 3500 
L 1478 3500 
L 1363 2950 
Q 1603 3253 1940 3418 
Q 2278 3584 2650 3584 
Q 3113 3584 3367 3334 
Q 3622 3084 3622 2631 
Q 3622 2519 3608 2391 
Q 3594 2263 3566 2113 
z
" transform="scale(0.015625)"/>
       <path id="DejaVuSans-28" d="M 1984 4856 
Q 1566 4138 1362 3434 
Q 1159 2731 1159 2009 
Q 1159 1288 1364 580 
Q 1569 -128 1984 -844 
L 1484 -844 
Q 1016 -109 783 600 
Q 550 1309 550 2009 
Q 550 2706 781 3412 
Q 1013 4119 1484 4856 
L 1984 4856 
z
" transform="scale(0.015625)"/>
       <path id="DejaVuSans-Oblique-78" d="M 3841 3500 
L 2234 1784 
L 3219 0 
L 2559 0 
L 1819 1388 
L 531 0 
L -166 0 
L 1556 1844 
L 641 3500 
L 1300 3500 
L 1972 2234 
L 3144 3500 
L 3841 3500 
z
" transform="scale(0.015625)"/>
       <path id="DejaVuSans-29" d="M 513 4856 
L 1013 4856 
Q 1481 4119 1714 3412 
Q 1947 2706 1947 2009 
Q 1947 1309 1714 600 
Q 1481 -109 1013 -844 
L 513 -844 
Q 928 -128 1133 580 
Q 1338 1288 1338 2009 
Q 1338 2731 1133 3434 
Q 928 4138 513 4856 
z
" transform="scale(0.015625)"/>
      </defs>
      <use xlink:href="#DejaVuSans-Oblique-73" transform="translate(0 0.015625)"/>
      <use xlink:href="#DejaVuSans-Oblique-69" transform="translate(52.099609 0.015625)"/>
      <use xlink:href="#DejaVuSans-Oblique-6e" transform="translate(79.882812 0.015625)"/>
      <use xlink:href="#DejaVuSans-28" transform="translate(143.261719 0.015625)"/>
      <use xlink:href="#DejaVuSans-Oblique-78" transform="translate(182.275391 0.015625)"/>
      <use xlink:href="#DejaVuSans-29" transform="translate(241.455078 0.015625)"/>
     </g>
    </g>
    <g id="line2d_32">
     <path d="M 153 97.02 
L 163 97.02 
L 173 97.02 
" style="fill: none; stroke: #ff7f0e; stroke-width: 1.5; stroke-linecap: square"/>
    </g>
    <g id="text_16">
     <!-- $\sin(x+\frac{\pi}{2})$ 相位 -->
     <g transform="translate(181 100.52)scale(0.1 -0.1)">
      <defs>
       <path id="DejaVuSans-73" d="M 2834 3397 
L 2834 2853 
Q 2591 2978 2328 3040 
Q 2066 3103 1784 3103 
Q 1356 3103 1142 2972 
Q 928 2841 928 2578 
Q 928 2378 1081 2264 
Q 1234 2150 1697 2047 
L 1894 2003 
Q 2506 1872 2764 1633 
Q 3022 1394 3022 966 
Q 3022 478 2636 193 
Q 2250 -91 1575 -91 
Q 1294 -91 989 -36 
Q 684 19 347 128 
L 347 722 
Q 666 556 975 473 
Q 1284 391 1588 391 
Q 1994 391 2212 530 
Q 2431 669 2431 922 
Q 2431 1156 2273 1281 
Q 2116 1406 1581 1522 
L 1381 1569 
Q 847 1681 609 1914 
Q 372 2147 372 2553 
Q 372 3047 722 3315 
Q 1072 3584 1716 3584 
Q 2034 3584 2315 3537 
Q 2597 3491 2834 3397 
z
" transform="scale(0.015625)"/>
       <path id="DejaVuSans-69" d="M 603 3500 
L 1178 3500 
L 1178 0 
L 603 0 
L 603 3500 
z
M 603 4863 
L 1178 4863 
L 1178 4134 
L 603 4134 
L 603 4863 
z
" transform="scale(0.015625)"/>
       <path id="DejaVuSans-6e" d="M 3513 2113 
L 3513 0 
L 2938 0 
L 2938 2094 
Q 2938 2591 2744 2837 
Q 2550 3084 2163 3084 
Q 1697 3084 1428 2787 
Q 1159 2491 1159 1978 
L 1159 0 
L 581 0 
L 581 3500 
L 1159 3500 
L 1159 2956 
Q 1366 3272 1645 3428 
Q 1925 3584 2291 3584 
Q 2894 3584 3203 3211 
Q 3513 2838 3513 2113 
z
" transform="scale(0.015625)"/>
       <path id="DejaVuSans-2b" d="M 2944 4013 
L 2944 2272 
L 4684 2272 
L 4684 1741 
L 2944 1741 
L 2944 0 
L 2419 0 
L 2419 1741 
L 678 1741 
L 678 2272 
L 2419 2272 
L 2419 4013 
L 2944 4013 
z
" transform="scale(0.015625)"/>
       <path id="DejaVuSans-Oblique-3c0" d="M 584 3500 
L 3938 3500 
L 3825 2925 
L 3384 2925 
L 2966 775 
Q 2922 550 2981 450 
Q 3038 353 3209 353 
Q 3256 353 3325 363 
Q 3397 369 3419 372 
L 3338 -44 
Q 3222 -84 3103 -103 
Q 2981 -122 2866 -122 
Q 2491 -122 2388 81 
Q 2284 288 2391 838 
L 2797 2925 
L 1506 2925 
L 938 0 
L 350 0 
L 919 2925 
L 472 2925 
L 584 3500 
z
" transform="scale(0.015625)"/>
       <path id="DejaVuSans-32" d="M 1228 531 
L 3431 531 
L 3431 0 
L 469 0 
L 469 531 
Q 828 903 1448 1529 
Q 2069 2156 2228 2338 
Q 2531 2678 2651 2914 
Q 2772 3150 2772 3378 
Q 2772 3750 2511 3984 
Q 2250 4219 1831 4219 
Q 1534 4219 1204 4116 
Q 875 4013 500 3803 
L 500 4441 
Q 881 4594 1212 4672 
Q 1544 4750 1819 4750 
Q 2544 4750 2975 4387 
Q 3406 4025 3406 3419 
Q 3406 3131 3298 2873 
Q 3191 2616 2906 2266 
Q 2828 2175 2409 1742 
Q 1991 1309 1228 531 
z
" transform="scale(0.015625)"/>
       <path id="SimHei-20" transform="scale(0.015625)"/>
       <path id="SimHei-76f8" d="M 5900 4825 
Q 5875 4225 5875 3575 
L 5875 750 
Q 5875 75 5900 -575 
L 5400 -575 
L 5400 -100 
L 3525 -100 
L 3525 -625 
L 3025 -625 
Q 3050 125 3050 675 
L 3050 3600 
Q 3050 4250 3025 4825 
L 5900 4825 
z
M 1400 3825 
Q 1400 4850 1375 5200 
L 1925 5200 
Q 1900 4825 1900 3825 
Q 2500 3825 2825 3850 
L 2825 3375 
Q 2525 3400 1900 3400 
L 1900 2450 
Q 2025 2575 2175 2750 
Q 2625 2275 2950 1825 
Q 2800 1725 2575 1500 
Q 2300 1975 1900 2375 
L 1900 475 
Q 1900 50 1925 -625 
L 1375 -625 
Q 1400 50 1400 450 
L 1400 2150 
Q 1075 1225 650 675 
Q 475 950 300 1100 
Q 475 1250 800 1887 
Q 1125 2525 1300 3400 
Q 750 3400 400 3375 
L 400 3850 
Q 850 3825 1400 3825 
z
M 5400 325 
L 5400 1475 
L 3525 1475 
L 3525 325 
L 5400 325 
z
M 5400 3300 
L 5400 4400 
L 3525 4400 
L 3525 3300 
L 5400 3300 
z
M 5400 1900 
L 5400 2900 
L 3525 2900 
L 3525 1900 
L 5400 1900 
z
" transform="scale(0.015625)"/>
       <path id="SimHei-4f4d" d="M 2125 4925 
Q 1950 4750 1625 3750 
L 1625 575 
Q 1625 -225 1650 -650 
L 1100 -650 
Q 1150 -200 1150 550 
L 1150 2950 
Q 775 2275 550 1950 
Q 375 2275 200 2425 
Q 525 2775 912 3575 
Q 1300 4375 1500 5200 
Q 1825 5000 2125 4925 
z
M 5375 3025 
Q 5275 2875 5100 2250 
Q 4925 1625 4600 300 
L 5450 300 
Q 5925 300 6100 325 
L 6100 -175 
Q 5875 -150 5450 -150 
L 2900 -150 
Q 2275 -150 2050 -175 
L 2050 325 
Q 2275 300 2850 300 
L 4075 300 
Q 4400 1400 4700 3175 
Q 5100 3075 5375 3025 
z
M 5250 4025 
Q 5700 4025 5925 4050 
L 5925 3575 
Q 5700 3600 5225 3600 
L 3000 3600 
Q 2650 3600 2275 3575 
L 2275 4050 
Q 2675 4025 3000 4025 
L 5250 4025 
z
M 3050 3050 
Q 3500 1775 3750 725 
Q 3450 625 3250 550 
Q 3125 1125 2962 1675 
Q 2800 2225 2550 2875 
Q 2800 2925 3050 3050 
z
M 3875 5200 
Q 4175 4675 4400 4300 
Q 4200 4250 3875 4075 
Q 3700 4525 3400 4950 
Q 3650 5050 3875 5200 
z
" transform="scale(0.015625)"/>
      </defs>
      <use xlink:href="#DejaVuSans-73" transform="translate(0 0.5875)"/>
      <use xlink:href="#DejaVuSans-69" transform="translate(52.099609 0.5875)"/>
      <use xlink:href="#DejaVuSans-6e" transform="translate(79.882812 0.5875)"/>
      <use xlink:href="#DejaVuSans-28" transform="translate(143.261719 0.5875)"/>
      <use xlink:href="#DejaVuSans-Oblique-78" transform="translate(182.275391 0.5875)"/>
      <use xlink:href="#DejaVuSans-2b" transform="translate(260.9375 0.5875)"/>
      <use xlink:href="#DejaVuSans-Oblique-3c0" transform="translate(365.208984 45.71875)scale(0.7)"/>
      <use xlink:href="#DejaVuSans-32" transform="translate(364.208984 -38.81875)scale(0.7)"/>
      <use xlink:href="#DejaVuSans-29" transform="translate(421.245117 0.5875)"/>
      <use xlink:href="#SimHei-20" transform="translate(460.258789 0.5875)"/>
      <use xlink:href="#SimHei-76f8" transform="translate(510.258789 0.5875)"/>
      <use xlink:href="#SimHei-4f4d" transform="translate(610.258789 0.5875)"/>
      <path d="M 364.208984 19.384375 
L 364.208984 25.634375 
L 408.745117 25.634375 
L 408.745117 19.384375 
L 364.208984 19.384375 
z
"/>
     </g>
    </g>
   </g>
  </g>
 </g>
 <defs>
  <clipPath id="p1c7d39b823">
   <rect x="144" y="69.12" width="892.8" height="443.52"/>
  </clipPath>
 </defs>
</svg>
