<?xml version="1.0" encoding="utf-8" standalone="no"?>
<!DOCTYPE svg PUBLIC "-//W3C//DTD SVG 1.1//EN"
  "http://www.w3.org/Graphics/SVG/1.1/DTD/svg11.dtd">
<svg xmlns:xlink="http://www.w3.org/1999/xlink" width="1108.08pt" height="576pt" viewBox="0 0 1108.08 576" xmlns="http://www.w3.org/2000/svg" version="1.1">
 <metadata>
  <rdf:RDF xmlns:dc="http://purl.org/dc/elements/1.1/" xmlns:cc="http://creativecommons.org/ns#" xmlns:rdf="http://www.w3.org/1999/02/22-rdf-syntax-ns#">
   <cc:Work>
    <dc:type rdf:resource="http://purl.org/dc/dcmitype/StillImage"/>
    <dc:date>2024-09-04T23:26:08.921572</dc:date>
    <dc:format>image/svg+xml</dc:format>
    <dc:creator>
     <cc:Agent>
      <dc:title>Matplotlib v3.9.1, https://matplotlib.org/</dc:title>
     </cc:Agent>
    </dc:creator>
   </cc:Work>
  </rdf:RDF>
 </metadata>
 <defs>
  <style type="text/css">*{stroke-linejoin: round; stroke-linecap: butt}</style>
 </defs>
 <g id="figure_1">
  <g id="patch_1">
   <path d="M 0 576 
L 1108.08 576 
L 1108.08 0 
L 0 0 
z
" style="fill: #ffffff"/>
  </g>
  <g id="axes_1">
   <g id="patch_2">
    <path d="M 138.51 512.64 
L 997.272 512.64 
L 997.272 69.12 
L 138.51 69.12 
z
" style="fill: #ffffff"/>
   </g>
   <g id="matplotlib.axis_1">
    <g id="xtick_1">
     <g id="line2d_1">
      <path d="M 177.544636 512.64 
L 177.544636 69.12 
" clip-path="url(#p3562c2ccbb)" style="fill: none; stroke: #b0b0b0; stroke-opacity: 0.9; stroke-width: 0.8; stroke-linecap: square"/>
     </g>
     <g id="line2d_2">
      <defs>
       <path id="mbe966f10b1" d="M 0 0 
L 0 3.5 
" style="stroke: #000000; stroke-width: 0.8"/>
      </defs>
      <g>
       <use xlink:href="#mbe966f10b1" x="177.544636" y="512.64" style="stroke: #000000; stroke-width: 0.8"/>
      </g>
     </g>
     <g id="text_1">
      <!-- 0 -->
      <g transform="translate(175.044636 526.515) scale(0.1 -0.1)">
       <defs>
        <path id="SimHei-30" d="M 225 2537 
Q 250 3200 412 3587 
Q 575 3975 875 4225 
Q 1175 4475 1612 4475 
Q 2050 4475 2375 4112 
Q 2700 3750 2800 3200 
Q 2900 2650 2862 1937 
Q 2825 1225 2612 775 
Q 2400 325 1975 150 
Q 1550 -25 1125 187 
Q 700 400 525 750 
Q 350 1100 275 1487 
Q 200 1875 225 2537 
z
M 750 2687 
Q 675 2000 800 1462 
Q 925 925 1212 700 
Q 1500 475 1800 612 
Q 2100 750 2237 1162 
Q 2375 1575 2375 2062 
Q 2375 2550 2337 2950 
Q 2300 3350 2112 3675 
Q 1925 4000 1612 4012 
Q 1300 4025 1062 3700 
Q 825 3375 750 2687 
z
" transform="scale(0.015625)"/>
       </defs>
       <use xlink:href="#SimHei-30"/>
      </g>
     </g>
    </g>
    <g id="xtick_2">
     <g id="line2d_3">
      <path d="M 333.683182 512.64 
L 333.683182 69.12 
" clip-path="url(#p3562c2ccbb)" style="fill: none; stroke: #b0b0b0; stroke-opacity: 0.9; stroke-width: 0.8; stroke-linecap: square"/>
     </g>
     <g id="line2d_4">
      <g>
       <use xlink:href="#mbe966f10b1" x="333.683182" y="512.64" style="stroke: #000000; stroke-width: 0.8"/>
      </g>
     </g>
     <g id="text_2">
      <!-- 90 -->
      <g transform="translate(328.683182 526.515) scale(0.1 -0.1)">
       <defs>
        <path id="SimHei-39" d="M 800 75 
Q 1350 1000 1700 1750 
Q 1075 1650 662 1912 
Q 250 2175 162 2625 
Q 75 3075 175 3437 
Q 275 3800 487 4037 
Q 700 4275 1000 4375 
Q 1300 4475 1537 4475 
Q 1775 4475 2025 4375 
Q 2275 4275 2475 4075 
Q 2675 3875 2750 3662 
Q 2825 3450 2825 3112 
Q 2825 2775 2575 2250 
Q 2325 1725 1350 75 
L 800 75 
z
M 662 2875 
Q 700 2550 937 2337 
Q 1175 2125 1450 2150 
Q 1725 2175 1887 2300 
Q 2050 2425 2200 2725 
Q 2300 3100 2250 3362 
Q 2200 3625 1987 3800 
Q 1775 3975 1525 3975 
Q 1375 4000 1137 3900 
Q 900 3800 762 3500 
Q 625 3200 662 2875 
z
" transform="scale(0.015625)"/>
       </defs>
       <use xlink:href="#SimHei-39"/>
       <use xlink:href="#SimHei-30" x="50"/>
      </g>
     </g>
    </g>
    <g id="xtick_3">
     <g id="line2d_5">
      <path d="M 489.821727 512.64 
L 489.821727 69.12 
" clip-path="url(#p3562c2ccbb)" style="fill: none; stroke: #b0b0b0; stroke-opacity: 0.9; stroke-width: 0.8; stroke-linecap: square"/>
     </g>
     <g id="line2d_6">
      <g>
       <use xlink:href="#mbe966f10b1" x="489.821727" y="512.64" style="stroke: #000000; stroke-width: 0.8"/>
      </g>
     </g>
     <g id="text_3">
      <!-- 180 -->
      <g transform="translate(482.321727 526.515) scale(0.1 -0.1)">
       <defs>
        <path id="SimHei-31" d="M 1400 3600 
Q 1075 3275 575 2975 
L 575 3450 
Q 1200 3875 1600 4450 
L 1900 4450 
L 1900 150 
L 1400 150 
L 1400 3600 
z
" transform="scale(0.015625)"/>
        <path id="SimHei-38" d="M 175 1375 
Q 175 1675 325 1962 
Q 475 2250 825 2425 
Q 525 2600 425 2812 
Q 325 3025 312 3300 
Q 300 3575 387 3775 
Q 475 3975 650 4150 
Q 825 4325 1037 4387 
Q 1250 4450 1500 4450 
Q 1750 4450 1950 4400 
Q 2150 4350 2375 4187 
Q 2600 4025 2700 3725 
Q 2800 3425 2687 3025 
Q 2575 2625 2100 2400 
Q 2525 2275 2700 2012 
Q 2875 1750 2875 1375 
Q 2875 1000 2762 775 
Q 2650 550 2512 400 
Q 2375 250 2137 162 
Q 1900 75 1537 75 
Q 1175 75 912 162 
Q 650 250 475 425 
Q 300 600 237 837 
Q 175 1075 175 1375 
z
M 687 1400 
Q 675 1100 787 875 
Q 900 650 1200 587 
Q 1500 525 1825 600 
Q 2150 675 2275 950 
Q 2400 1225 2362 1500 
Q 2325 1775 2050 1962 
Q 1775 2150 1450 2125 
Q 1125 2100 912 1900 
Q 700 1700 687 1400 
z
M 775 3350 
Q 775 3100 950 2875 
Q 1125 2650 1500 2650 
Q 1875 2650 2062 2875 
Q 2250 3100 2237 3412 
Q 2225 3725 2012 3875 
Q 1800 4025 1437 4000 
Q 1075 3975 925 3787 
Q 775 3600 775 3350 
z
" transform="scale(0.015625)"/>
       </defs>
       <use xlink:href="#SimHei-31"/>
       <use xlink:href="#SimHei-38" x="50"/>
       <use xlink:href="#SimHei-30" x="100"/>
      </g>
     </g>
    </g>
    <g id="xtick_4">
     <g id="line2d_7">
      <path d="M 645.960273 512.64 
L 645.960273 69.12 
" clip-path="url(#p3562c2ccbb)" style="fill: none; stroke: #b0b0b0; stroke-opacity: 0.9; stroke-width: 0.8; stroke-linecap: square"/>
     </g>
     <g id="line2d_8">
      <g>
       <use xlink:href="#mbe966f10b1" x="645.960273" y="512.64" style="stroke: #000000; stroke-width: 0.8"/>
      </g>
     </g>
     <g id="text_4">
      <!-- 270 -->
      <g transform="translate(638.460273 526.515) scale(0.1 -0.1)">
       <defs>
        <path id="SimHei-32" d="M 300 250 
Q 325 625 650 925 
Q 975 1225 1475 1862 
Q 1975 2500 2125 2850 
Q 2275 3200 2237 3450 
Q 2200 3700 2000 3862 
Q 1800 4025 1537 4000 
Q 1275 3975 1037 3800 
Q 800 3625 675 3275 
L 200 3350 
Q 400 3925 712 4187 
Q 1025 4450 1450 4475 
Q 1700 4500 1900 4462 
Q 2100 4425 2312 4287 
Q 2525 4150 2662 3875 
Q 2800 3600 2762 3212 
Q 2725 2825 2375 2287 
Q 2025 1750 1025 600 
L 2825 600 
L 2825 150 
L 300 150 
L 300 250 
z
" transform="scale(0.015625)"/>
        <path id="SimHei-37" d="M 850 150 
Q 1300 2050 2425 3925 
L 275 3925 
L 275 4375 
L 2950 4375 
L 2950 3950 
Q 1775 2050 1400 150 
L 850 150 
z
" transform="scale(0.015625)"/>
       </defs>
       <use xlink:href="#SimHei-32"/>
       <use xlink:href="#SimHei-37" x="50"/>
       <use xlink:href="#SimHei-30" x="100"/>
      </g>
     </g>
    </g>
    <g id="xtick_5">
     <g id="line2d_9">
      <path d="M 802.098818 512.64 
L 802.098818 69.12 
" clip-path="url(#p3562c2ccbb)" style="fill: none; stroke: #b0b0b0; stroke-opacity: 0.9; stroke-width: 0.8; stroke-linecap: square"/>
     </g>
     <g id="line2d_10">
      <g>
       <use xlink:href="#mbe966f10b1" x="802.098818" y="512.64" style="stroke: #000000; stroke-width: 0.8"/>
      </g>
     </g>
     <g id="text_5">
      <!-- 360 -->
      <g transform="translate(794.598818 526.515) scale(0.1 -0.1)">
       <defs>
        <path id="SimHei-33" d="M 250 1225 
L 700 1300 
Q 800 975 1025 762 
Q 1250 550 1587 562 
Q 1925 575 2125 837 
Q 2325 1100 2300 1437 
Q 2275 1775 2037 1962 
Q 1800 2150 1275 2225 
L 1275 2550 
Q 1800 2600 2037 2825 
Q 2275 3050 2250 3412 
Q 2225 3775 1925 3937 
Q 1625 4100 1287 3975 
Q 950 3850 750 3275 
L 300 3350 
Q 450 3800 712 4100 
Q 975 4400 1425 4450 
Q 1875 4500 2212 4337 
Q 2550 4175 2687 3837 
Q 2825 3500 2725 3100 
Q 2625 2700 2150 2400 
Q 2500 2250 2687 1950 
Q 2875 1650 2812 1162 
Q 2750 675 2375 375 
Q 2000 75 1525 87 
Q 1050 100 700 387 
Q 350 675 250 1225 
z
" transform="scale(0.015625)"/>
        <path id="SimHei-36" d="M 250 1612 
Q 275 1975 387 2225 
Q 500 2475 725 2850 
L 1750 4450 
L 2325 4450 
L 1275 2800 
Q 1950 2975 2350 2750 
Q 2750 2525 2887 2237 
Q 3025 1950 3037 1612 
Q 3050 1275 2937 950 
Q 2825 625 2537 362 
Q 2250 100 1737 75 
Q 1225 50 862 262 
Q 500 475 362 862 
Q 225 1250 250 1612 
z
M 1025 787 
Q 1250 550 1625 525 
Q 2000 500 2250 775 
Q 2500 1050 2500 1575 
Q 2500 2100 2187 2300 
Q 1875 2500 1487 2450 
Q 1100 2400 925 2075 
Q 750 1750 775 1387 
Q 800 1025 1025 787 
z
" transform="scale(0.015625)"/>
       </defs>
       <use xlink:href="#SimHei-33"/>
       <use xlink:href="#SimHei-36" x="50"/>
       <use xlink:href="#SimHei-30" x="100"/>
      </g>
     </g>
    </g>
   </g>
   <g id="matplotlib.axis_2">
    <g id="ytick_1">
     <g id="line2d_11">
      <path d="M 138.51 492.48 
L 997.272 492.48 
" clip-path="url(#p3562c2ccbb)" style="fill: none; stroke: #b0b0b0; stroke-opacity: 0.9; stroke-width: 0.8; stroke-linecap: square"/>
     </g>
     <g id="line2d_12">
      <defs>
       <path id="m44d0084fde" d="M 0 0 
L -3.5 0 
" style="stroke: #000000; stroke-width: 0.8"/>
      </defs>
      <g>
       <use xlink:href="#m44d0084fde" x="138.51" y="492.48" style="stroke: #000000; stroke-width: 0.8"/>
      </g>
     </g>
     <g id="text_6">
      <!-- -3 -->
      <g transform="translate(121.51 495.9175) scale(0.1 -0.1)">
       <defs>
        <path id="SimHei-2d" d="M 2975 2125 
L 125 2125 
L 125 2525 
L 2975 2525 
L 2975 2125 
z
" transform="scale(0.015625)"/>
       </defs>
       <use xlink:href="#SimHei-2d"/>
       <use xlink:href="#SimHei-33" x="50"/>
      </g>
     </g>
    </g>
    <g id="ytick_2">
     <g id="line2d_13">
      <path d="M 138.51 425.28 
L 997.272 425.28 
" clip-path="url(#p3562c2ccbb)" style="fill: none; stroke: #b0b0b0; stroke-opacity: 0.9; stroke-width: 0.8; stroke-linecap: square"/>
     </g>
     <g id="line2d_14">
      <g>
       <use xlink:href="#m44d0084fde" x="138.51" y="425.28" style="stroke: #000000; stroke-width: 0.8"/>
      </g>
     </g>
     <g id="text_7">
      <!-- -2 -->
      <g transform="translate(121.51 428.7175) scale(0.1 -0.1)">
       <use xlink:href="#SimHei-2d"/>
       <use xlink:href="#SimHei-32" x="50"/>
      </g>
     </g>
    </g>
    <g id="ytick_3">
     <g id="line2d_15">
      <path d="M 138.51 358.08 
L 997.272 358.08 
" clip-path="url(#p3562c2ccbb)" style="fill: none; stroke: #b0b0b0; stroke-opacity: 0.9; stroke-width: 0.8; stroke-linecap: square"/>
     </g>
     <g id="line2d_16">
      <g>
       <use xlink:href="#m44d0084fde" x="138.51" y="358.08" style="stroke: #000000; stroke-width: 0.8"/>
      </g>
     </g>
     <g id="text_8">
      <!-- -1 -->
      <g transform="translate(121.51 361.5175) scale(0.1 -0.1)">
       <use xlink:href="#SimHei-2d"/>
       <use xlink:href="#SimHei-31" x="50"/>
      </g>
     </g>
    </g>
    <g id="ytick_4">
     <g id="line2d_17">
      <path d="M 138.51 290.88 
L 997.272 290.88 
" clip-path="url(#p3562c2ccbb)" style="fill: none; stroke: #b0b0b0; stroke-opacity: 0.9; stroke-width: 0.8; stroke-linecap: square"/>
     </g>
     <g id="line2d_18">
      <g>
       <use xlink:href="#m44d0084fde" x="138.51" y="290.88" style="stroke: #000000; stroke-width: 0.8"/>
      </g>
     </g>
     <g id="text_9">
      <!-- 0 -->
      <g transform="translate(126.51 294.3175) scale(0.1 -0.1)">
       <use xlink:href="#SimHei-30"/>
      </g>
     </g>
    </g>
    <g id="ytick_5">
     <g id="line2d_19">
      <path d="M 138.51 223.68 
L 997.272 223.68 
" clip-path="url(#p3562c2ccbb)" style="fill: none; stroke: #b0b0b0; stroke-opacity: 0.9; stroke-width: 0.8; stroke-linecap: square"/>
     </g>
     <g id="line2d_20">
      <g>
       <use xlink:href="#m44d0084fde" x="138.51" y="223.68" style="stroke: #000000; stroke-width: 0.8"/>
      </g>
     </g>
     <g id="text_10">
      <!-- 1 -->
      <g transform="translate(126.51 227.1175) scale(0.1 -0.1)">
       <use xlink:href="#SimHei-31"/>
      </g>
     </g>
    </g>
    <g id="ytick_6">
     <g id="line2d_21">
      <path d="M 138.51 156.48 
L 997.272 156.48 
" clip-path="url(#p3562c2ccbb)" style="fill: none; stroke: #b0b0b0; stroke-opacity: 0.9; stroke-width: 0.8; stroke-linecap: square"/>
     </g>
     <g id="line2d_22">
      <g>
       <use xlink:href="#m44d0084fde" x="138.51" y="156.48" style="stroke: #000000; stroke-width: 0.8"/>
      </g>
     </g>
     <g id="text_11">
      <!-- 2 -->
      <g transform="translate(126.51 159.9175) scale(0.1 -0.1)">
       <use xlink:href="#SimHei-32"/>
      </g>
     </g>
    </g>
    <g id="ytick_7">
     <g id="line2d_23">
      <path d="M 138.51 89.28 
L 997.272 89.28 
" clip-path="url(#p3562c2ccbb)" style="fill: none; stroke: #b0b0b0; stroke-opacity: 0.9; stroke-width: 0.8; stroke-linecap: square"/>
     </g>
     <g id="line2d_24">
      <g>
       <use xlink:href="#m44d0084fde" x="138.51" y="89.28" style="stroke: #000000; stroke-width: 0.8"/>
      </g>
     </g>
     <g id="text_12">
      <!-- 3 -->
      <g transform="translate(126.51 92.7175) scale(0.1 -0.1)">
       <use xlink:href="#SimHei-33"/>
      </g>
     </g>
    </g>
   </g>
   <g id="line2d_25">
    <path d="M 177.544636 290.88 
L 200.097982 275.763289 
L 212.242091 267.896246 
L 222.651327 261.421459 
L 231.325691 256.269441 
L 240.000055 251.380831 
L 248.674418 246.792833 
L 255.613909 243.362424 
L 262.5534 240.163516 
L 269.492891 237.211694 
L 276.432382 234.521338 
L 283.371873 232.105556 
L 290.311364 229.976117 
L 297.250855 228.143395 
L 302.455473 226.969002 
L 307.660091 225.969784 
L 312.864709 225.148481 
L 318.069327 224.507344 
L 323.273945 224.048129 
L 328.478564 223.772095 
L 333.683182 223.68 
L 338.8878 223.772095 
L 344.092418 224.048129 
L 349.297036 224.507344 
L 354.501655 225.148481 
L 359.706273 225.969784 
L 364.910891 226.969002 
L 370.115509 228.143395 
L 377.055 229.976117 
L 383.994491 232.105556 
L 390.933982 234.521338 
L 397.873473 237.211694 
L 404.812964 240.163516 
L 411.752455 243.362424 
L 418.691945 246.792833 
L 425.631436 250.43803 
L 434.3058 255.269425 
L 442.980164 260.371838 
L 453.3894 266.797674 
L 463.798636 273.48736 
L 477.677618 282.69038 
L 519.314564 310.527379 
L 529.7238 317.137132 
L 538.398164 322.428489 
L 547.072527 327.479743 
L 555.746891 332.252451 
L 562.686382 335.845577 
L 569.625873 339.219635 
L 576.565364 342.358187 
L 583.504855 345.245942 
L 590.444345 347.868832 
L 597.383836 350.214078 
L 604.323327 352.270255 
L 611.262818 354.027344 
L 616.467436 355.14368 
L 621.672055 356.083873 
L 626.876673 356.845347 
L 632.081291 357.426014 
L 637.285909 357.824284 
L 642.490527 358.039064 
L 647.695145 358.069765 
L 652.899764 357.916304 
L 658.104382 357.579101 
L 663.309 357.059081 
L 668.513618 356.357668 
L 673.718236 355.476786 
L 678.922855 354.418848 
L 684.127473 353.186755 
L 691.066964 351.27896 
L 698.006455 349.076907 
L 704.945945 346.591325 
L 711.885436 343.834323 
L 718.824927 340.819332 
L 725.764418 337.561042 
L 732.703909 334.075327 
L 739.6434 330.379169 
L 748.317764 325.490559 
L 756.992127 320.338541 
L 767.401364 313.863754 
L 779.545473 305.996711 
L 795.159327 295.567635 
L 826.387036 274.622849 
L 838.531145 266.797674 
L 848.940382 260.371838 
L 857.614745 255.269425 
L 866.289109 250.43803 
L 873.2286 246.792833 
L 880.168091 243.362424 
L 887.107582 240.163516 
L 894.047073 237.211694 
L 900.986564 234.521338 
L 907.926055 232.105556 
L 914.865545 229.976117 
L 921.805036 228.143395 
L 927.009655 226.969002 
L 932.214273 225.969784 
L 937.418891 225.148481 
L 942.623509 224.507344 
L 947.828127 224.048129 
L 953.032745 223.772095 
L 958.237364 223.68 
L 958.237364 223.68 
" clip-path="url(#p3562c2ccbb)" style="fill: none; stroke: #1f77b4; stroke-width: 1.5; stroke-linecap: square"/>
   </g>
   <g id="line2d_26">
    <path d="M 177.544636 290.88 
L 196.628236 252.412907 
L 207.037473 231.937864 
L 215.711836 215.359311 
L 222.651327 202.504377 
L 229.590818 190.08 
L 236.530309 178.146711 
L 243.4698 166.762647 
L 248.674418 158.6185 
L 253.879036 150.836873 
L 259.083655 143.439094 
L 264.288273 136.44544 
L 269.492891 129.875081 
L 274.697509 123.746025 
L 279.902127 118.075072 
L 283.371873 114.556667 
L 286.841618 111.253085 
L 290.311364 108.16835 
L 293.781109 105.306222 
L 297.250855 102.670186 
L 300.7206 100.263455 
L 304.190345 98.088961 
L 307.660091 96.149353 
L 311.129836 94.446995 
L 314.599582 92.98396 
L 318.069327 91.762031 
L 321.539073 90.782696 
L 325.008818 90.047149 
L 328.478564 89.556286 
L 331.948309 89.310705 
L 335.418055 89.310705 
L 338.8878 89.556286 
L 342.357545 90.047149 
L 345.827291 90.782696 
L 349.297036 91.762031 
L 352.766782 92.98396 
L 356.236527 94.446995 
L 359.706273 96.149353 
L 363.176018 98.088961 
L 366.645764 100.263455 
L 370.115509 102.670186 
L 373.585255 105.306222 
L 377.055 108.16835 
L 380.524745 111.253085 
L 383.994491 114.556667 
L 387.464236 118.075072 
L 392.668855 123.746025 
L 397.873473 129.875081 
L 403.078091 136.44544 
L 408.282709 143.439094 
L 413.487327 150.836873 
L 418.691945 158.6185 
L 423.896564 166.762647 
L 429.101182 175.24699 
L 436.040673 187.048324 
L 442.980164 199.355515 
L 449.919655 212.108604 
L 458.594018 228.582174 
L 467.268382 245.529867 
L 479.412491 269.807062 
L 514.109945 339.651454 
L 522.784309 356.51454 
L 531.458673 372.878107 
L 538.398164 385.525467 
L 545.337655 397.711724 
L 552.277145 409.377507 
L 557.481764 417.750991 
L 562.686382 425.77673 
L 567.891 433.432727 
L 573.095618 440.697997 
L 578.300236 447.552626 
L 583.504855 453.977826 
L 588.709473 459.955986 
L 593.914091 465.470721 
L 597.383836 468.882235 
L 600.853582 472.07688 
L 604.323327 475.050764 
L 607.793073 477.800265 
L 611.262818 480.322032 
L 614.732564 482.612994 
L 618.202309 484.670358 
L 621.672055 486.491618 
L 625.1418 488.074556 
L 628.611545 489.417243 
L 632.081291 490.518043 
L 635.551036 491.375614 
L 639.020782 491.988913 
L 642.490527 492.357191 
L 645.960273 492.48 
L 649.430018 492.357191 
L 652.899764 491.988913 
L 656.369509 491.375614 
L 659.839255 490.518043 
L 663.309 489.417243 
L 666.778745 488.074556 
L 670.248491 486.491618 
L 673.718236 484.670358 
L 677.187982 482.612994 
L 680.657727 480.322032 
L 684.127473 477.800265 
L 687.597218 475.050764 
L 691.066964 472.07688 
L 694.536709 468.882235 
L 698.006455 465.470721 
L 703.211073 459.955986 
L 708.415691 453.977826 
L 713.620309 447.552626 
L 718.824927 440.697997 
L 724.029545 433.432727 
L 729.234164 425.77673 
L 734.438782 417.750991 
L 739.6434 409.377507 
L 746.582891 397.711724 
L 753.522382 385.525467 
L 760.461873 372.878107 
L 769.136236 356.51454 
L 777.8106 339.651454 
L 788.219836 318.937297 
L 807.303436 280.329071 
L 822.917291 248.965003 
L 833.326527 228.582174 
L 842.000891 212.108604 
L 848.940382 199.355515 
L 855.879873 187.048324 
L 862.819364 175.24699 
L 868.023982 166.762647 
L 873.2286 158.6185 
L 878.433218 150.836873 
L 883.637836 143.439094 
L 888.842455 136.44544 
L 894.047073 129.875081 
L 899.251691 123.746025 
L 904.456309 118.075072 
L 907.926055 114.556667 
L 911.3958 111.253085 
L 914.865545 108.16835 
L 918.335291 105.306222 
L 921.805036 102.670186 
L 925.274782 100.263455 
L 928.744527 98.088961 
L 932.214273 96.149353 
L 935.684018 94.446995 
L 939.153764 92.98396 
L 942.623509 91.762031 
L 946.093255 90.782696 
L 949.563 90.047149 
L 953.032745 89.556286 
L 956.502491 89.310705 
L 958.237364 89.28 
L 958.237364 89.28 
" clip-path="url(#p3562c2ccbb)" style="fill: none; stroke: #ff7f0e; stroke-width: 1.5; stroke-linecap: square"/>
   </g>
   <g id="line2d_27">
    <path d="M 177.544636 358.08 
L 182.749255 357.987905 
L 187.953873 357.711871 
L 193.158491 357.252656 
L 198.363109 356.611519 
L 203.567727 355.790216 
L 208.772345 354.790998 
L 213.976964 353.616605 
L 220.916455 351.783883 
L 227.855945 349.654444 
L 234.795436 347.238662 
L 241.734927 344.548306 
L 248.674418 341.596484 
L 255.613909 338.397576 
L 262.5534 334.967167 
L 269.492891 331.32197 
L 278.167255 326.490575 
L 286.841618 321.388162 
L 297.250855 314.962326 
L 307.660091 308.27264 
L 321.539073 299.06962 
L 363.176018 271.232621 
L 373.585255 264.622868 
L 382.259618 259.331511 
L 390.933982 254.280257 
L 399.608345 249.507549 
L 406.547836 245.914423 
L 413.487327 242.540365 
L 420.426818 239.401813 
L 427.366309 236.514058 
L 434.3058 233.891168 
L 441.245291 231.545922 
L 448.184782 229.489745 
L 455.124273 227.732656 
L 460.328891 226.61632 
L 465.533509 225.676127 
L 470.738127 224.914653 
L 475.942745 224.333986 
L 481.147364 223.935716 
L 486.351982 223.720936 
L 491.5566 223.690235 
L 496.761218 223.843696 
L 501.965836 224.180899 
L 507.170455 224.700919 
L 512.375073 225.402332 
L 517.579691 226.283214 
L 522.784309 227.341152 
L 527.988927 228.573245 
L 534.928418 230.48104 
L 541.867909 232.683093 
L 548.8074 235.168675 
L 555.746891 237.925677 
L 562.686382 240.940668 
L 569.625873 244.198958 
L 576.565364 247.684673 
L 583.504855 251.380831 
L 592.179218 256.269441 
L 600.853582 261.421459 
L 611.262818 267.896246 
L 623.406927 275.763289 
L 639.020782 286.192365 
L 670.248491 307.137151 
L 682.3926 314.962326 
L 692.801836 321.388162 
L 701.4762 326.490575 
L 710.150564 331.32197 
L 717.090055 334.967167 
L 724.029545 338.397576 
L 730.969036 341.596484 
L 737.908527 344.548306 
L 744.848018 347.238662 
L 751.787509 349.654444 
L 758.727 351.783883 
L 765.666491 353.616605 
L 770.871109 354.790998 
L 776.075727 355.790216 
L 781.280345 356.611519 
L 786.484964 357.252656 
L 791.689582 357.711871 
L 796.8942 357.987905 
L 802.098818 358.08 
L 807.303436 357.987905 
L 812.508055 357.711871 
L 817.712673 357.252656 
L 822.917291 356.611519 
L 828.121909 355.790216 
L 833.326527 354.790998 
L 838.531145 353.616605 
L 845.470636 351.783883 
L 852.410127 349.654444 
L 859.349618 347.238662 
L 866.289109 344.548306 
L 873.2286 341.596484 
L 880.168091 338.397576 
L 887.107582 334.967167 
L 894.047073 331.32197 
L 902.721436 326.490575 
L 911.3958 321.388162 
L 921.805036 314.962326 
L 932.214273 308.27264 
L 946.093255 299.06962 
L 958.237364 290.88 
L 958.237364 290.88 
" clip-path="url(#p3562c2ccbb)" style="fill: none; stroke: #2ca02c; stroke-width: 1.5; stroke-linecap: square"/>
   </g>
   <g id="line2d_28">
    <path d="M 177.544636 290.88 
L 189.688745 274.622849 
L 196.628236 265.706437 
L 201.832855 259.331511 
L 207.037473 253.302237 
L 211.374655 248.58967 
L 215.711836 244.198958 
L 220.049018 240.163516 
L 223.518764 237.211694 
L 226.988509 234.521338 
L 230.458255 232.105556 
L 233.928 229.976117 
L 237.397745 228.143395 
L 240.867491 226.61632 
L 244.337236 225.402332 
L 246.939545 224.700919 
L 249.541855 224.180899 
L 252.144164 223.843696 
L 254.746473 223.690235 
L 257.348782 223.720936 
L 259.951091 223.935716 
L 262.5534 224.333986 
L 265.155709 224.914653 
L 267.758018 225.676127 
L 270.360327 226.61632 
L 273.830073 228.143395 
L 277.299818 229.976117 
L 280.769564 232.105556 
L 284.239309 234.521338 
L 287.709055 237.211694 
L 291.1788 240.163516 
L 294.648545 243.362424 
L 298.985727 247.684673 
L 303.322909 252.335663 
L 308.527527 258.300794 
L 313.732145 264.622868 
L 319.8042 272.35717 
L 327.611127 282.69038 
L 349.297036 311.645942 
L 355.369091 319.279947 
L 360.573709 325.490559 
L 365.778327 331.32197 
L 370.115509 335.845577 
L 374.452691 340.026969 
L 377.922436 343.104209 
L 381.392182 345.927017 
L 384.861927 348.481643 
L 388.331673 350.755638 
L 391.801418 352.737926 
L 395.271164 354.418848 
L 398.740909 355.790216 
L 401.343218 356.611519 
L 403.945527 357.252656 
L 406.547836 357.711871 
L 409.150145 357.987905 
L 411.752455 358.08 
L 414.354764 357.987905 
L 416.957073 357.711871 
L 419.559382 357.252656 
L 422.161691 356.611519 
L 424.764 355.790216 
L 428.233745 354.418848 
L 431.703491 352.737926 
L 435.173236 350.755638 
L 438.642982 348.481643 
L 442.112727 345.927017 
L 445.582473 343.104209 
L 449.052218 340.026969 
L 453.3894 335.845577 
L 457.726582 331.32197 
L 462.063764 326.490575 
L 467.268382 320.338541 
L 473.340436 312.75818 
L 480.279927 303.702364 
L 491.5566 288.534754 
L 502.833273 273.48736 
L 509.772764 264.622868 
L 514.977382 258.300794 
L 520.182 252.335663 
L 524.519182 247.684673 
L 528.856364 243.362424 
L 533.193545 239.401813 
L 536.663291 236.514058 
L 540.133036 233.891168 
L 543.602782 231.545922 
L 547.072527 229.489745 
L 550.542273 227.732656 
L 554.012018 226.283214 
L 556.614327 225.402332 
L 559.216636 224.700919 
L 561.818945 224.180899 
L 564.421255 223.843696 
L 567.023564 223.690235 
L 567.891 223.68 
L 567.891 223.68 
" clip-path="url(#p3562c2ccbb)" style="fill: none; stroke: #d62728; stroke-width: 1.5; stroke-linecap: square"/>
   </g>
   <g id="patch_3">
    <path d="M 138.51 512.64 
L 138.51 69.12 
" style="fill: none; stroke: #000000; stroke-width: 0.8; stroke-linejoin: miter; stroke-linecap: square"/>
   </g>
   <g id="patch_4">
    <path d="M 997.272 512.64 
L 997.272 69.12 
" style="fill: none; stroke: #000000; stroke-width: 0.8; stroke-linejoin: miter; stroke-linecap: square"/>
   </g>
   <g id="patch_5">
    <path d="M 138.51 512.64 
L 997.272 512.64 
" style="fill: none; stroke: #000000; stroke-width: 0.8; stroke-linejoin: miter; stroke-linecap: square"/>
   </g>
   <g id="patch_6">
    <path d="M 138.51 69.12 
L 997.272 69.12 
" style="fill: none; stroke: #000000; stroke-width: 0.8; stroke-linejoin: miter; stroke-linecap: square"/>
   </g>
   <g id="legend_1">
    <g id="patch_7">
     <path d="M 145.51 141.52 
L 248.61 141.52 
Q 250.61 141.52 250.61 139.52 
L 250.61 76.12 
Q 250.61 74.12 248.61 74.12 
L 145.51 74.12 
Q 143.51 74.12 143.51 76.12 
L 143.51 139.52 
Q 143.51 141.52 145.51 141.52 
z
" style="fill: #ffffff; opacity: 0.8; stroke: #cccccc; stroke-linejoin: miter"/>
    </g>
    <g id="line2d_29">
     <path d="M 147.51 82.22 
L 157.51 82.22 
L 167.51 82.22 
" style="fill: none; stroke: #1f77b4; stroke-width: 1.5; stroke-linecap: square"/>
    </g>
    <g id="text_13">
     <!-- $sin(x)$ -->
     <g transform="translate(175.51 85.72) scale(0.1 -0.1)">
      <defs>
       <path id="DejaVuSans-Oblique-73" d="M 3200 3397 
L 3091 2853 
Q 2863 2978 2609 3040 
Q 2356 3103 2088 3103 
Q 1634 3103 1373 2948 
Q 1113 2794 1113 2528 
Q 1113 2219 1719 2053 
Q 1766 2041 1788 2034 
L 1972 1978 
Q 2547 1819 2739 1644 
Q 2931 1469 2931 1166 
Q 2931 609 2489 259 
Q 2047 -91 1331 -91 
Q 1053 -91 747 -37 
Q 441 16 72 128 
L 184 722 
Q 500 559 806 475 
Q 1113 391 1394 391 
Q 1816 391 2080 572 
Q 2344 753 2344 1031 
Q 2344 1331 1650 1516 
L 1591 1531 
L 1394 1581 
Q 956 1697 753 1886 
Q 550 2075 550 2369 
Q 550 2928 970 3256 
Q 1391 3584 2113 3584 
Q 2397 3584 2667 3537 
Q 2938 3491 3200 3397 
z
" transform="scale(0.015625)"/>
       <path id="DejaVuSans-Oblique-69" d="M 1172 4863 
L 1747 4863 
L 1606 4134 
L 1031 4134 
L 1172 4863 
z
M 909 3500 
L 1484 3500 
L 800 0 
L 225 0 
L 909 3500 
z
" transform="scale(0.015625)"/>
       <path id="DejaVuSans-Oblique-6e" d="M 3566 2113 
L 3156 0 
L 2578 0 
L 2988 2091 
Q 3016 2238 3031 2350 
Q 3047 2463 3047 2528 
Q 3047 2791 2881 2937 
Q 2716 3084 2419 3084 
Q 1956 3084 1622 2776 
Q 1288 2469 1184 1941 
L 800 0 
L 225 0 
L 903 3500 
L 1478 3500 
L 1363 2950 
Q 1603 3253 1940 3418 
Q 2278 3584 2650 3584 
Q 3113 3584 3367 3334 
Q 3622 3084 3622 2631 
Q 3622 2519 3608 2391 
Q 3594 2263 3566 2113 
z
" transform="scale(0.015625)"/>
       <path id="DejaVuSans-28" d="M 1984 4856 
Q 1566 4138 1362 3434 
Q 1159 2731 1159 2009 
Q 1159 1288 1364 580 
Q 1569 -128 1984 -844 
L 1484 -844 
Q 1016 -109 783 600 
Q 550 1309 550 2009 
Q 550 2706 781 3412 
Q 1013 4119 1484 4856 
L 1984 4856 
z
" transform="scale(0.015625)"/>
       <path id="DejaVuSans-Oblique-78" d="M 3841 3500 
L 2234 1784 
L 3219 0 
L 2559 0 
L 1819 1388 
L 531 0 
L -166 0 
L 1556 1844 
L 641 3500 
L 1300 3500 
L 1972 2234 
L 3144 3500 
L 3841 3500 
z
" transform="scale(0.015625)"/>
       <path id="DejaVuSans-29" d="M 513 4856 
L 1013 4856 
Q 1481 4119 1714 3412 
Q 1947 2706 1947 2009 
Q 1947 1309 1714 600 
Q 1481 -109 1013 -844 
L 513 -844 
Q 928 -128 1133 580 
Q 1338 1288 1338 2009 
Q 1338 2731 1133 3434 
Q 928 4138 513 4856 
z
" transform="scale(0.015625)"/>
      </defs>
      <use xlink:href="#DejaVuSans-Oblique-73" transform="translate(0 0.015625)"/>
      <use xlink:href="#DejaVuSans-Oblique-69" transform="translate(52.099609 0.015625)"/>
      <use xlink:href="#DejaVuSans-Oblique-6e" transform="translate(79.882812 0.015625)"/>
      <use xlink:href="#DejaVuSans-28" transform="translate(143.261719 0.015625)"/>
      <use xlink:href="#DejaVuSans-Oblique-78" transform="translate(182.275391 0.015625)"/>
      <use xlink:href="#DejaVuSans-29" transform="translate(241.455078 0.015625)"/>
     </g>
    </g>
    <g id="line2d_30">
     <path d="M 147.51 96.72 
L 157.51 96.72 
L 167.51 96.72 
" style="fill: none; stroke: #ff7f0e; stroke-width: 1.5; stroke-linecap: square"/>
    </g>
    <g id="text_14">
     <!-- $3sin(x)$ 振幅 -->
     <g transform="translate(175.51 100.22) scale(0.1 -0.1)">
      <defs>
       <path id="DejaVuSans-33" d="M 2597 2516 
Q 3050 2419 3304 2112 
Q 3559 1806 3559 1356 
Q 3559 666 3084 287 
Q 2609 -91 1734 -91 
Q 1441 -91 1130 -33 
Q 819 25 488 141 
L 488 750 
Q 750 597 1062 519 
Q 1375 441 1716 441 
Q 2309 441 2620 675 
Q 2931 909 2931 1356 
Q 2931 1769 2642 2001 
Q 2353 2234 1838 2234 
L 1294 2234 
L 1294 2753 
L 1863 2753 
Q 2328 2753 2575 2939 
Q 2822 3125 2822 3475 
Q 2822 3834 2567 4026 
Q 2313 4219 1838 4219 
Q 1578 4219 1281 4162 
Q 984 4106 628 3988 
L 628 4550 
Q 988 4650 1302 4700 
Q 1616 4750 1894 4750 
Q 2613 4750 3031 4423 
Q 3450 4097 3450 3541 
Q 3450 3153 3228 2886 
Q 3006 2619 2597 2516 
z
" transform="scale(0.015625)"/>
       <path id="SimHei-20" transform="scale(0.015625)"/>
       <path id="SimHei-632f" d="M 3275 -200 
Q 3400 -100 3437 37 
Q 3475 175 3475 500 
L 3475 2300 
L 3025 2300 
Q 3000 1800 2950 1375 
Q 2900 950 2800 600 
Q 2700 250 2575 -37 
Q 2450 -325 2325 -625 
Q 2175 -475 1825 -350 
Q 2150 -25 2300 412 
Q 2450 850 2500 1350 
Q 2550 1850 2562 2437 
Q 2575 3025 2575 3625 
Q 2575 4250 2525 4825 
L 5150 4825 
Q 5475 4825 5825 4850 
L 5825 4375 
Q 5400 4400 5225 4400 
L 3025 4400 
L 3025 2700 
L 5375 2700 
Q 5600 2700 5975 2725 
L 5975 2275 
Q 5850 2300 5475 2300 
L 4675 2300 
Q 4775 1600 4925 1275 
Q 5125 1450 5262 1587 
Q 5400 1725 5550 1975 
Q 5650 1775 5900 1575 
Q 5750 1500 5575 1337 
Q 5400 1175 5125 875 
Q 5225 650 5500 362 
Q 5775 75 6175 -75 
Q 5875 -250 5775 -525 
Q 5300 -175 5075 100 
Q 4850 375 4687 687 
Q 4525 1000 4412 1387 
Q 4300 1775 4250 2300 
L 3950 2300 
L 3950 150 
Q 4250 300 4575 475 
Q 4625 325 4750 50 
Q 4575 -25 4237 -212 
Q 3900 -400 3600 -650 
Q 3500 -450 3275 -200 
z
M 250 2000 
Q 550 2075 725 2125 
L 1150 2275 
L 1150 3350 
Q 675 3350 325 3325 
L 325 3800 
Q 650 3775 1150 3775 
L 1150 4500 
Q 1150 4850 1125 5150 
L 1675 5150 
Q 1650 4875 1650 4500 
L 1650 3775 
Q 1875 3775 2300 3800 
L 2300 3325 
Q 1900 3350 1650 3350 
L 1650 2425 
Q 2000 2550 2250 2675 
Q 2250 2475 2275 2250 
Q 2100 2200 1650 2000 
L 1650 100 
Q 1600 -250 1450 -362 
Q 1300 -475 725 -525 
Q 700 -325 600 25 
Q 850 0 1000 0 
Q 1150 0 1150 300 
L 1150 1800 
Q 975 1725 850 1662 
Q 725 1600 475 1450 
Q 425 1675 250 2000 
z
M 4950 3775 
Q 5275 3775 5600 3800 
L 5600 3325 
Q 5275 3350 5000 3350 
L 4000 3350 
Q 3725 3350 3375 3325 
L 3375 3800 
Q 3700 3775 4000 3775 
L 4950 3775 
z
" transform="scale(0.015625)"/>
       <path id="SimHei-5e45" d="M 5950 2250 
Q 5925 1875 5925 900 
Q 5925 -50 5950 -425 
L 5450 -425 
L 5450 -175 
L 3350 -175 
L 3350 -475 
L 2875 -475 
Q 2900 200 2900 1025 
Q 2900 1875 2875 2250 
L 5950 2250 
z
M 2575 1125 
Q 2575 800 2437 700 
Q 2300 600 1950 525 
Q 1900 800 1750 1000 
Q 1975 1000 2075 1037 
Q 2175 1075 2175 1300 
L 2175 3725 
L 1700 3725 
L 1700 475 
Q 1700 0 1725 -550 
L 1225 -550 
Q 1250 -25 1250 475 
L 1250 3725 
L 850 3725 
L 850 500 
L 400 500 
Q 425 1000 425 2300 
Q 425 3600 400 4100 
L 1250 4100 
L 1250 4500 
Q 1250 4825 1225 5175 
L 1725 5175 
Q 1700 4825 1700 4500 
L 1700 4100 
L 2600 4100 
Q 2575 3900 2575 3225 
L 2575 1125 
z
M 5575 3925 
Q 5550 3625 5550 3300 
Q 5550 2975 5575 2600 
L 3200 2600 
Q 3225 2975 3225 3300 
Q 3225 3625 3200 3925 
L 5575 3925 
z
M 5250 4800 
Q 5650 4800 6025 4825 
L 6025 4375 
Q 5650 4400 5250 4400 
L 3550 4400 
Q 3075 4400 2800 4375 
L 2800 4825 
Q 3075 4800 3550 4800 
L 5250 4800 
z
M 5150 2975 
L 5150 3575 
L 3625 3575 
L 3625 2975 
L 5150 2975 
z
M 5450 1225 
L 5450 1875 
L 4625 1875 
L 4625 1225 
L 5450 1225 
z
M 4175 200 
L 4175 850 
L 3350 850 
L 3350 200 
L 4175 200 
z
M 5450 200 
L 5450 850 
L 4625 850 
L 4625 200 
L 5450 200 
z
M 4175 1225 
L 4175 1875 
L 3350 1875 
L 3350 1225 
L 4175 1225 
z
" transform="scale(0.015625)"/>
      </defs>
      <use xlink:href="#DejaVuSans-33" transform="translate(0 0.140625)"/>
      <use xlink:href="#DejaVuSans-Oblique-73" transform="translate(63.623047 0.140625)"/>
      <use xlink:href="#DejaVuSans-Oblique-69" transform="translate(115.722656 0.140625)"/>
      <use xlink:href="#DejaVuSans-Oblique-6e" transform="translate(143.505859 0.140625)"/>
      <use xlink:href="#DejaVuSans-28" transform="translate(206.884766 0.140625)"/>
      <use xlink:href="#DejaVuSans-Oblique-78" transform="translate(245.898438 0.140625)"/>
      <use xlink:href="#DejaVuSans-29" transform="translate(305.078125 0.140625)"/>
      <use xlink:href="#SimHei-20" transform="translate(344.091797 0.140625)"/>
      <use xlink:href="#SimHei-632f" transform="translate(394.091797 0.140625)"/>
      <use xlink:href="#SimHei-5e45" transform="translate(494.091797 0.140625)"/>
     </g>
    </g>
    <g id="line2d_31">
     <path d="M 147.51 111.52 
L 157.51 111.52 
L 167.51 111.52 
" style="fill: none; stroke: #2ca02c; stroke-width: 1.5; stroke-linecap: square"/>
    </g>
    <g id="text_15">
     <!-- $\sin(x+\frac{\pi}{2})$ 相位 -->
     <g transform="translate(175.51 115.02) scale(0.1 -0.1)">
      <defs>
       <path id="DejaVuSans-73" d="M 2834 3397 
L 2834 2853 
Q 2591 2978 2328 3040 
Q 2066 3103 1784 3103 
Q 1356 3103 1142 2972 
Q 928 2841 928 2578 
Q 928 2378 1081 2264 
Q 1234 2150 1697 2047 
L 1894 2003 
Q 2506 1872 2764 1633 
Q 3022 1394 3022 966 
Q 3022 478 2636 193 
Q 2250 -91 1575 -91 
Q 1294 -91 989 -36 
Q 684 19 347 128 
L 347 722 
Q 666 556 975 473 
Q 1284 391 1588 391 
Q 1994 391 2212 530 
Q 2431 669 2431 922 
Q 2431 1156 2273 1281 
Q 2116 1406 1581 1522 
L 1381 1569 
Q 847 1681 609 1914 
Q 372 2147 372 2553 
Q 372 3047 722 3315 
Q 1072 3584 1716 3584 
Q 2034 3584 2315 3537 
Q 2597 3491 2834 3397 
z
" transform="scale(0.015625)"/>
       <path id="DejaVuSans-69" d="M 603 3500 
L 1178 3500 
L 1178 0 
L 603 0 
L 603 3500 
z
M 603 4863 
L 1178 4863 
L 1178 4134 
L 603 4134 
L 603 4863 
z
" transform="scale(0.015625)"/>
       <path id="DejaVuSans-6e" d="M 3513 2113 
L 3513 0 
L 2938 0 
L 2938 2094 
Q 2938 2591 2744 2837 
Q 2550 3084 2163 3084 
Q 1697 3084 1428 2787 
Q 1159 2491 1159 1978 
L 1159 0 
L 581 0 
L 581 3500 
L 1159 3500 
L 1159 2956 
Q 1366 3272 1645 3428 
Q 1925 3584 2291 3584 
Q 2894 3584 3203 3211 
Q 3513 2838 3513 2113 
z
" transform="scale(0.015625)"/>
       <path id="DejaVuSans-2b" d="M 2944 4013 
L 2944 2272 
L 4684 2272 
L 4684 1741 
L 2944 1741 
L 2944 0 
L 2419 0 
L 2419 1741 
L 678 1741 
L 678 2272 
L 2419 2272 
L 2419 4013 
L 2944 4013 
z
" transform="scale(0.015625)"/>
       <path id="DejaVuSans-Oblique-3c0" d="M 584 3500 
L 3938 3500 
L 3825 2925 
L 3384 2925 
L 2966 775 
Q 2922 550 2981 450 
Q 3038 353 3209 353 
Q 3256 353 3325 363 
Q 3397 369 3419 372 
L 3338 -44 
Q 3222 -84 3103 -103 
Q 2981 -122 2866 -122 
Q 2491 -122 2388 81 
Q 2284 288 2391 838 
L 2797 2925 
L 1506 2925 
L 938 0 
L 350 0 
L 919 2925 
L 472 2925 
L 584 3500 
z
" transform="scale(0.015625)"/>
       <path id="DejaVuSans-32" d="M 1228 531 
L 3431 531 
L 3431 0 
L 469 0 
L 469 531 
Q 828 903 1448 1529 
Q 2069 2156 2228 2338 
Q 2531 2678 2651 2914 
Q 2772 3150 2772 3378 
Q 2772 3750 2511 3984 
Q 2250 4219 1831 4219 
Q 1534 4219 1204 4116 
Q 875 4013 500 3803 
L 500 4441 
Q 881 4594 1212 4672 
Q 1544 4750 1819 4750 
Q 2544 4750 2975 4387 
Q 3406 4025 3406 3419 
Q 3406 3131 3298 2873 
Q 3191 2616 2906 2266 
Q 2828 2175 2409 1742 
Q 1991 1309 1228 531 
z
" transform="scale(0.015625)"/>
       <path id="SimHei-76f8" d="M 5900 4825 
Q 5875 4225 5875 3575 
L 5875 750 
Q 5875 75 5900 -575 
L 5400 -575 
L 5400 -100 
L 3525 -100 
L 3525 -625 
L 3025 -625 
Q 3050 125 3050 675 
L 3050 3600 
Q 3050 4250 3025 4825 
L 5900 4825 
z
M 1400 3825 
Q 1400 4850 1375 5200 
L 1925 5200 
Q 1900 4825 1900 3825 
Q 2500 3825 2825 3850 
L 2825 3375 
Q 2525 3400 1900 3400 
L 1900 2450 
Q 2025 2575 2175 2750 
Q 2625 2275 2950 1825 
Q 2800 1725 2575 1500 
Q 2300 1975 1900 2375 
L 1900 475 
Q 1900 50 1925 -625 
L 1375 -625 
Q 1400 50 1400 450 
L 1400 2150 
Q 1075 1225 650 675 
Q 475 950 300 1100 
Q 475 1250 800 1887 
Q 1125 2525 1300 3400 
Q 750 3400 400 3375 
L 400 3850 
Q 850 3825 1400 3825 
z
M 5400 325 
L 5400 1475 
L 3525 1475 
L 3525 325 
L 5400 325 
z
M 5400 3300 
L 5400 4400 
L 3525 4400 
L 3525 3300 
L 5400 3300 
z
M 5400 1900 
L 5400 2900 
L 3525 2900 
L 3525 1900 
L 5400 1900 
z
" transform="scale(0.015625)"/>
       <path id="SimHei-4f4d" d="M 2125 4925 
Q 1950 4750 1625 3750 
L 1625 575 
Q 1625 -225 1650 -650 
L 1100 -650 
Q 1150 -200 1150 550 
L 1150 2950 
Q 775 2275 550 1950 
Q 375 2275 200 2425 
Q 525 2775 912 3575 
Q 1300 4375 1500 5200 
Q 1825 5000 2125 4925 
z
M 5375 3025 
Q 5275 2875 5100 2250 
Q 4925 1625 4600 300 
L 5450 300 
Q 5925 300 6100 325 
L 6100 -175 
Q 5875 -150 5450 -150 
L 2900 -150 
Q 2275 -150 2050 -175 
L 2050 325 
Q 2275 300 2850 300 
L 4075 300 
Q 4400 1400 4700 3175 
Q 5100 3075 5375 3025 
z
M 5250 4025 
Q 5700 4025 5925 4050 
L 5925 3575 
Q 5700 3600 5225 3600 
L 3000 3600 
Q 2650 3600 2275 3575 
L 2275 4050 
Q 2675 4025 3000 4025 
L 5250 4025 
z
M 3050 3050 
Q 3500 1775 3750 725 
Q 3450 625 3250 550 
Q 3125 1125 2962 1675 
Q 2800 2225 2550 2875 
Q 2800 2925 3050 3050 
z
M 3875 5200 
Q 4175 4675 4400 4300 
Q 4200 4250 3875 4075 
Q 3700 4525 3400 4950 
Q 3650 5050 3875 5200 
z
" transform="scale(0.015625)"/>
      </defs>
      <use xlink:href="#DejaVuSans-73" transform="translate(0 0.5875)"/>
      <use xlink:href="#DejaVuSans-69" transform="translate(52.099609 0.5875)"/>
      <use xlink:href="#DejaVuSans-6e" transform="translate(79.882812 0.5875)"/>
      <use xlink:href="#DejaVuSans-28" transform="translate(143.261719 0.5875)"/>
      <use xlink:href="#DejaVuSans-Oblique-78" transform="translate(182.275391 0.5875)"/>
      <use xlink:href="#DejaVuSans-2b" transform="translate(260.9375 0.5875)"/>
      <use xlink:href="#DejaVuSans-Oblique-3c0" transform="translate(365.208984 45.71875) scale(0.7)"/>
      <use xlink:href="#DejaVuSans-32" transform="translate(364.208984 -38.81875) scale(0.7)"/>
      <use xlink:href="#DejaVuSans-29" transform="translate(421.245117 0.5875)"/>
      <use xlink:href="#SimHei-20" transform="translate(460.258789 0.5875)"/>
      <use xlink:href="#SimHei-76f8" transform="translate(510.258789 0.5875)"/>
      <use xlink:href="#SimHei-4f4d" transform="translate(610.258789 0.5875)"/>
      <path d="M 364.208984 19.384375 
L 364.208984 25.634375 
L 408.745117 25.634375 
L 408.745117 19.384375 
L 364.208984 19.384375 
z
"/>
     </g>
    </g>
    <g id="line2d_32">
     <path d="M 147.51 130.02 
L 157.51 130.02 
L 167.51 130.02 
" style="fill: none; stroke: #d62728; stroke-width: 1.5; stroke-linecap: square"/>
    </g>
    <g id="text_16">
     <!-- $\sin(\frac{1}{2}x)$ 频率 -->
     <g transform="translate(175.51 133.52) scale(0.1 -0.1)">
      <defs>
       <path id="DejaVuSans-31" d="M 794 531 
L 1825 531 
L 1825 4091 
L 703 3866 
L 703 4441 
L 1819 4666 
L 2450 4666 
L 2450 531 
L 3481 531 
L 3481 0 
L 794 0 
L 794 531 
z
" transform="scale(0.015625)"/>
       <path id="SimHei-9891" d="M 4250 4450 
Q 3575 4450 3125 4425 
L 3125 4850 
Q 3550 4825 3925 4825 
L 5225 4825 
Q 5600 4825 6000 4850 
L 6000 4425 
Q 5600 4450 4700 4450 
Q 4625 4050 4550 3625 
L 5875 3625 
Q 5850 3275 5850 2900 
L 5850 1650 
Q 5850 1300 5875 750 
L 5400 750 
L 5400 3250 
L 3875 3250 
L 3875 800 
L 3400 800 
Q 3425 1275 3425 1650 
L 3425 2825 
Q 3425 3275 3400 3625 
L 4125 3625 
Q 4200 4100 4250 4450 
z
M 1675 2750 
Q 650 2750 350 2725 
L 350 3150 
Q 550 3125 725 3125 
Q 725 4275 700 4625 
L 1200 4625 
Q 1175 4275 1175 3125 
L 1675 3125 
L 1675 4275 
Q 1675 4750 1650 5125 
L 2150 5125 
Q 2125 4750 2125 4250 
Q 2625 4250 3025 4275 
L 3025 3850 
Q 2625 3875 2125 3875 
L 2125 3125 
Q 2850 3125 3150 3150 
L 3150 2725 
Q 2850 2750 2125 2750 
L 1675 2750 
z
M 2150 2600 
Q 2125 2250 2125 1925 
L 2125 1050 
Q 2600 1650 2650 2200 
Q 2875 2100 3175 2075 
Q 2850 1075 2187 450 
Q 1525 -175 700 -500 
Q 550 -250 200 -75 
Q 750 75 1087 237 
Q 1425 400 1675 625 
L 1675 1900 
Q 1675 2250 1650 2600 
L 2150 2600 
z
M 2775 -250 
Q 3400 -75 3737 225 
Q 4075 525 4212 887 
Q 4350 1250 4362 1725 
Q 4375 2200 4350 2750 
Q 4650 2700 4925 2650 
Q 4850 2325 4837 1975 
Q 4825 1625 4750 1112 
Q 4675 600 4300 162 
Q 3925 -275 3250 -650 
Q 3075 -450 2775 -250 
z
M 5850 -650 
Q 5550 -275 4800 250 
Q 4975 425 5075 600 
Q 5825 75 6200 -250 
Q 5975 -425 5850 -650 
z
M 400 1175 
Q 650 1550 900 2375 
Q 1125 2275 1375 2225 
Q 1000 1325 850 1025 
Q 650 1150 400 1175 
z
" transform="scale(0.015625)"/>
       <path id="SimHei-7387" d="M 3325 5150 
Q 3425 4900 3550 4525 
L 4800 4525 
Q 5250 4525 5800 4550 
L 5800 4125 
Q 5250 4175 4775 4175 
L 2800 4175 
Q 2975 4050 3300 3900 
Q 3075 3750 2875 3537 
Q 2675 3325 2475 3125 
L 3275 3125 
Q 3575 3425 3775 3775 
Q 4000 3600 4275 3425 
Q 3950 3250 3600 2875 
Q 3250 2500 2625 2000 
L 3850 2100 
Q 3725 2250 3600 2425 
Q 3750 2475 4000 2650 
Q 4250 2350 4700 1700 
Q 4475 1625 4225 1450 
Q 4175 1600 4025 1775 
Q 3700 1750 3425 1750 
L 3425 1050 
L 5150 1050 
Q 5675 1050 6100 1075 
L 6100 650 
Q 5700 675 5125 675 
L 3425 675 
L 3425 175 
Q 3425 -300 3450 -625 
L 2900 -625 
Q 2925 -300 2925 175 
L 2925 675 
L 1325 675 
Q 825 675 325 650 
L 325 1075 
Q 825 1050 1350 1050 
L 2925 1050 
L 2925 1700 
Q 2700 1675 2475 1637 
Q 2250 1600 2025 1525 
Q 1950 1775 1850 2000 
Q 2075 2025 2325 2200 
Q 2575 2375 2975 2800 
Q 2300 2725 2025 2625 
Q 1975 2875 1850 3175 
Q 2075 3175 2325 3487 
Q 2575 3800 2750 4175 
L 1700 4175 
Q 1150 4175 650 4125 
L 650 4550 
Q 1150 4525 1550 4525 
L 2975 4525 
Q 2900 4825 2800 5025 
Q 3025 5075 3325 5150 
z
M 1625 2575 
Q 1725 2400 1825 2200 
Q 1575 2050 1325 1862 
Q 1075 1675 800 1425 
Q 625 1675 475 1875 
Q 800 2025 1100 2212 
Q 1400 2400 1625 2575 
z
M 4850 2650 
Q 5125 2475 5337 2337 
Q 5550 2200 5875 1950 
Q 5675 1800 5500 1600 
Q 5300 1775 5062 1975 
Q 4825 2175 4575 2325 
Q 4725 2475 4850 2650 
z
M 5725 3525 
Q 5550 3450 5300 3262 
Q 5050 3075 4800 2825 
Q 4625 3050 4475 3175 
Q 4700 3325 4875 3487 
Q 5050 3650 5300 3925 
Q 5525 3700 5725 3525 
z
M 1050 3850 
Q 1425 3600 1775 3275 
Q 1575 3100 1425 2925 
Q 1075 3300 675 3525 
Q 875 3700 1050 3850 
z
" transform="scale(0.015625)"/>
      </defs>
      <use xlink:href="#DejaVuSans-73" transform="translate(0 0.16875)"/>
      <use xlink:href="#DejaVuSans-69" transform="translate(52.099609 0.16875)"/>
      <use xlink:href="#DejaVuSans-6e" transform="translate(79.882812 0.16875)"/>
      <use xlink:href="#DejaVuSans-28" transform="translate(143.261719 0.16875)"/>
      <use xlink:href="#DejaVuSans-31" transform="translate(182.275391 43.965625) scale(0.7)"/>
      <use xlink:href="#DejaVuSans-32" transform="translate(182.275391 -39.2375) scale(0.7)"/>
      <use xlink:href="#DejaVuSans-Oblique-78" transform="translate(239.311523 0.16875)"/>
      <use xlink:href="#DejaVuSans-29" transform="translate(298.491211 0.16875)"/>
      <use xlink:href="#SimHei-20" transform="translate(337.504883 0.16875)"/>
      <use xlink:href="#SimHei-9891" transform="translate(387.504883 0.16875)"/>
      <use xlink:href="#SimHei-7387" transform="translate(487.504883 0.16875)"/>
      <path d="M 182.275391 18.965625 
L 182.275391 25.215625 
L 226.811523 25.215625 
L 226.811523 18.965625 
L 182.275391 18.965625 
z
"/>
     </g>
    </g>
   </g>
  </g>
 </g>
 <defs>
  <clipPath id="p3562c2ccbb">
   <rect x="138.51" y="69.12" width="858.762" height="443.52"/>
  </clipPath>
 </defs>
</svg>
