<?xml version="1.0" encoding="utf-8" standalone="no"?>
<!DOCTYPE svg PUBLIC "-//W3C//DTD SVG 1.1//EN"
  "http://www.w3.org/Graphics/SVG/1.1/DTD/svg11.dtd">
<svg xmlns:xlink="http://www.w3.org/1999/xlink" width="1152pt" height="576pt" viewBox="0 0 1152 576" xmlns="http://www.w3.org/2000/svg" version="1.1">
 <metadata>
  <rdf:RDF xmlns:dc="http://purl.org/dc/elements/1.1/" xmlns:cc="http://creativecommons.org/ns#" xmlns:rdf="http://www.w3.org/1999/02/22-rdf-syntax-ns#">
   <cc:Work>
    <dc:type rdf:resource="http://purl.org/dc/dcmitype/StillImage"/>
    <dc:date>2024-09-06T09:57:15.430946</dc:date>
    <dc:format>image/svg+xml</dc:format>
    <dc:creator>
     <cc:Agent>
      <dc:title>Matplotlib v3.5.3, https://matplotlib.org/</dc:title>
     </cc:Agent>
    </dc:creator>
   </cc:Work>
  </rdf:RDF>
 </metadata>
 <defs>
  <style type="text/css">*{stroke-linejoin: round; stroke-linecap: butt}</style>
 </defs>
 <g id="figure_1">
  <g id="patch_1">
   <path d="M 0 576 
L 1152 576 
L 1152 0 
L 0 0 
z
" style="fill: #ffffff"/>
  </g>
  <g id="axes_1">
   <g id="patch_2">
    <path d="M 144 512.64 
L 1036.8 512.64 
L 1036.8 69.12 
L 144 69.12 
z
" style="fill: #ffffff"/>
   </g>
   <g id="matplotlib.axis_1">
    <g id="xtick_1">
     <g id="line2d_1">
      <path d="M 184.581818 512.64 
L 184.581818 69.12 
" clip-path="url(#pc47fe876a4)" style="fill: none; stroke: #b0b0b0; stroke-opacity: 0.9; stroke-width: 0.8; stroke-linecap: square"/>
     </g>
     <g id="line2d_2">
      <defs>
       <path id="m549ac662a7" d="M 0 0 
L 0 3.5 
" style="stroke: #000000; stroke-width: 0.8"/>
      </defs>
      <g>
       <use xlink:href="#m549ac662a7" x="184.581818" y="512.64" style="stroke: #000000; stroke-width: 0.8"/>
      </g>
     </g>
     <g id="text_1">
      <!-- 0 -->
      <g transform="translate(182.081818 526.515)scale(0.1 -0.1)">
       <defs>
        <path id="SimHei-30" d="M 225 2537 
Q 250 3200 412 3587 
Q 575 3975 875 4225 
Q 1175 4475 1612 4475 
Q 2050 4475 2375 4112 
Q 2700 3750 2800 3200 
Q 2900 2650 2862 1937 
Q 2825 1225 2612 775 
Q 2400 325 1975 150 
Q 1550 -25 1125 187 
Q 700 400 525 750 
Q 350 1100 275 1487 
Q 200 1875 225 2537 
z
M 750 2687 
Q 675 2000 800 1462 
Q 925 925 1212 700 
Q 1500 475 1800 612 
Q 2100 750 2237 1162 
Q 2375 1575 2375 2062 
Q 2375 2550 2337 2950 
Q 2300 3350 2112 3675 
Q 1925 4000 1612 4012 
Q 1300 4025 1062 3700 
Q 825 3375 750 2687 
z
" transform="scale(0.015625)"/>
       </defs>
       <use xlink:href="#SimHei-30"/>
      </g>
     </g>
    </g>
    <g id="xtick_2">
     <g id="line2d_3">
      <path d="M 319.854545 512.64 
L 319.854545 69.12 
" clip-path="url(#pc47fe876a4)" style="fill: none; stroke: #b0b0b0; stroke-opacity: 0.9; stroke-width: 0.8; stroke-linecap: square"/>
     </g>
     <g id="line2d_4">
      <g>
       <use xlink:href="#m549ac662a7" x="319.854545" y="512.64" style="stroke: #000000; stroke-width: 0.8"/>
      </g>
     </g>
     <g id="text_2">
      <!-- 90 -->
      <g transform="translate(314.854545 526.515)scale(0.1 -0.1)">
       <defs>
        <path id="SimHei-39" d="M 800 75 
Q 1350 1000 1700 1750 
Q 1075 1650 662 1912 
Q 250 2175 162 2625 
Q 75 3075 175 3437 
Q 275 3800 487 4037 
Q 700 4275 1000 4375 
Q 1300 4475 1537 4475 
Q 1775 4475 2025 4375 
Q 2275 4275 2475 4075 
Q 2675 3875 2750 3662 
Q 2825 3450 2825 3112 
Q 2825 2775 2575 2250 
Q 2325 1725 1350 75 
L 800 75 
z
M 662 2875 
Q 700 2550 937 2337 
Q 1175 2125 1450 2150 
Q 1725 2175 1887 2300 
Q 2050 2425 2200 2725 
Q 2300 3100 2250 3362 
Q 2200 3625 1987 3800 
Q 1775 3975 1525 3975 
Q 1375 4000 1137 3900 
Q 900 3800 762 3500 
Q 625 3200 662 2875 
z
" transform="scale(0.015625)"/>
       </defs>
       <use xlink:href="#SimHei-39"/>
       <use xlink:href="#SimHei-30" x="50"/>
      </g>
     </g>
    </g>
    <g id="xtick_3">
     <g id="line2d_5">
      <path d="M 455.127273 512.64 
L 455.127273 69.12 
" clip-path="url(#pc47fe876a4)" style="fill: none; stroke: #b0b0b0; stroke-opacity: 0.9; stroke-width: 0.8; stroke-linecap: square"/>
     </g>
     <g id="line2d_6">
      <g>
       <use xlink:href="#m549ac662a7" x="455.127273" y="512.64" style="stroke: #000000; stroke-width: 0.8"/>
      </g>
     </g>
     <g id="text_3">
      <!-- 180 -->
      <g transform="translate(447.627273 526.515)scale(0.1 -0.1)">
       <defs>
        <path id="SimHei-31" d="M 1400 3600 
Q 1075 3275 575 2975 
L 575 3450 
Q 1200 3875 1600 4450 
L 1900 4450 
L 1900 150 
L 1400 150 
L 1400 3600 
z
" transform="scale(0.015625)"/>
        <path id="SimHei-38" d="M 175 1375 
Q 175 1675 325 1962 
Q 475 2250 825 2425 
Q 525 2600 425 2812 
Q 325 3025 312 3300 
Q 300 3575 387 3775 
Q 475 3975 650 4150 
Q 825 4325 1037 4387 
Q 1250 4450 1500 4450 
Q 1750 4450 1950 4400 
Q 2150 4350 2375 4187 
Q 2600 4025 2700 3725 
Q 2800 3425 2687 3025 
Q 2575 2625 2100 2400 
Q 2525 2275 2700 2012 
Q 2875 1750 2875 1375 
Q 2875 1000 2762 775 
Q 2650 550 2512 400 
Q 2375 250 2137 162 
Q 1900 75 1537 75 
Q 1175 75 912 162 
Q 650 250 475 425 
Q 300 600 237 837 
Q 175 1075 175 1375 
z
M 687 1400 
Q 675 1100 787 875 
Q 900 650 1200 587 
Q 1500 525 1825 600 
Q 2150 675 2275 950 
Q 2400 1225 2362 1500 
Q 2325 1775 2050 1962 
Q 1775 2150 1450 2125 
Q 1125 2100 912 1900 
Q 700 1700 687 1400 
z
M 775 3350 
Q 775 3100 950 2875 
Q 1125 2650 1500 2650 
Q 1875 2650 2062 2875 
Q 2250 3100 2237 3412 
Q 2225 3725 2012 3875 
Q 1800 4025 1437 4000 
Q 1075 3975 925 3787 
Q 775 3600 775 3350 
z
" transform="scale(0.015625)"/>
       </defs>
       <use xlink:href="#SimHei-31"/>
       <use xlink:href="#SimHei-38" x="50"/>
       <use xlink:href="#SimHei-30" x="100"/>
      </g>
     </g>
    </g>
    <g id="xtick_4">
     <g id="line2d_7">
      <path d="M 590.4 512.64 
L 590.4 69.12 
" clip-path="url(#pc47fe876a4)" style="fill: none; stroke: #b0b0b0; stroke-opacity: 0.9; stroke-width: 0.8; stroke-linecap: square"/>
     </g>
     <g id="line2d_8">
      <g>
       <use xlink:href="#m549ac662a7" x="590.4" y="512.64" style="stroke: #000000; stroke-width: 0.8"/>
      </g>
     </g>
     <g id="text_4">
      <!-- 270 -->
      <g transform="translate(582.9 526.515)scale(0.1 -0.1)">
       <defs>
        <path id="SimHei-32" d="M 300 250 
Q 325 625 650 925 
Q 975 1225 1475 1862 
Q 1975 2500 2125 2850 
Q 2275 3200 2237 3450 
Q 2200 3700 2000 3862 
Q 1800 4025 1537 4000 
Q 1275 3975 1037 3800 
Q 800 3625 675 3275 
L 200 3350 
Q 400 3925 712 4187 
Q 1025 4450 1450 4475 
Q 1700 4500 1900 4462 
Q 2100 4425 2312 4287 
Q 2525 4150 2662 3875 
Q 2800 3600 2762 3212 
Q 2725 2825 2375 2287 
Q 2025 1750 1025 600 
L 2825 600 
L 2825 150 
L 300 150 
L 300 250 
z
" transform="scale(0.015625)"/>
        <path id="SimHei-37" d="M 850 150 
Q 1300 2050 2425 3925 
L 275 3925 
L 275 4375 
L 2950 4375 
L 2950 3950 
Q 1775 2050 1400 150 
L 850 150 
z
" transform="scale(0.015625)"/>
       </defs>
       <use xlink:href="#SimHei-32"/>
       <use xlink:href="#SimHei-37" x="50"/>
       <use xlink:href="#SimHei-30" x="100"/>
      </g>
     </g>
    </g>
    <g id="xtick_5">
     <g id="line2d_9">
      <path d="M 725.672727 512.64 
L 725.672727 69.12 
" clip-path="url(#pc47fe876a4)" style="fill: none; stroke: #b0b0b0; stroke-opacity: 0.9; stroke-width: 0.8; stroke-linecap: square"/>
     </g>
     <g id="line2d_10">
      <g>
       <use xlink:href="#m549ac662a7" x="725.672727" y="512.64" style="stroke: #000000; stroke-width: 0.8"/>
      </g>
     </g>
     <g id="text_5">
      <!-- 360 -->
      <g transform="translate(718.172727 526.515)scale(0.1 -0.1)">
       <defs>
        <path id="SimHei-33" d="M 250 1225 
L 700 1300 
Q 800 975 1025 762 
Q 1250 550 1587 562 
Q 1925 575 2125 837 
Q 2325 1100 2300 1437 
Q 2275 1775 2037 1962 
Q 1800 2150 1275 2225 
L 1275 2550 
Q 1800 2600 2037 2825 
Q 2275 3050 2250 3412 
Q 2225 3775 1925 3937 
Q 1625 4100 1287 3975 
Q 950 3850 750 3275 
L 300 3350 
Q 450 3800 712 4100 
Q 975 4400 1425 4450 
Q 1875 4500 2212 4337 
Q 2550 4175 2687 3837 
Q 2825 3500 2725 3100 
Q 2625 2700 2150 2400 
Q 2500 2250 2687 1950 
Q 2875 1650 2812 1162 
Q 2750 675 2375 375 
Q 2000 75 1525 87 
Q 1050 100 700 387 
Q 350 675 250 1225 
z
" transform="scale(0.015625)"/>
        <path id="SimHei-36" d="M 250 1612 
Q 275 1975 387 2225 
Q 500 2475 725 2850 
L 1750 4450 
L 2325 4450 
L 1275 2800 
Q 1950 2975 2350 2750 
Q 2750 2525 2887 2237 
Q 3025 1950 3037 1612 
Q 3050 1275 2937 950 
Q 2825 625 2537 362 
Q 2250 100 1737 75 
Q 1225 50 862 262 
Q 500 475 362 862 
Q 225 1250 250 1612 
z
M 1025 787 
Q 1250 550 1625 525 
Q 2000 500 2250 775 
Q 2500 1050 2500 1575 
Q 2500 2100 2187 2300 
Q 1875 2500 1487 2450 
Q 1100 2400 925 2075 
Q 750 1750 775 1387 
Q 800 1025 1025 787 
z
" transform="scale(0.015625)"/>
       </defs>
       <use xlink:href="#SimHei-33"/>
       <use xlink:href="#SimHei-36" x="50"/>
       <use xlink:href="#SimHei-30" x="100"/>
      </g>
     </g>
    </g>
    <g id="xtick_6">
     <g id="line2d_11">
      <path d="M 860.945455 512.64 
L 860.945455 69.12 
" clip-path="url(#pc47fe876a4)" style="fill: none; stroke: #b0b0b0; stroke-opacity: 0.9; stroke-width: 0.8; stroke-linecap: square"/>
     </g>
     <g id="line2d_12">
      <g>
       <use xlink:href="#m549ac662a7" x="860.945455" y="512.64" style="stroke: #000000; stroke-width: 0.8"/>
      </g>
     </g>
     <g id="text_6">
      <!-- 450 -->
      <g transform="translate(853.445455 526.515)scale(0.1 -0.1)">
       <defs>
        <path id="SimHei-34" d="M 2000 1100 
L 75 1100 
L 75 1525 
L 2100 4450 
L 2475 4450 
L 2475 1525 
L 3075 1525 
L 3075 1100 
L 2475 1100 
L 2475 150 
L 2000 150 
L 2000 1100 
z
M 2000 1525 
L 2000 3500 
L 600 1525 
L 2000 1525 
z
" transform="scale(0.015625)"/>
        <path id="SimHei-35" d="M 550 1325 
Q 725 650 1150 575 
Q 1575 500 1837 662 
Q 2100 825 2212 1087 
Q 2325 1350 2312 1675 
Q 2300 2000 2137 2225 
Q 1975 2450 1725 2525 
Q 1475 2600 1162 2525 
Q 850 2450 650 2175 
L 225 2225 
Q 275 2375 700 4375 
L 2675 4375 
L 2675 3925 
L 1075 3925 
Q 950 3250 825 2850 
Q 1200 3025 1525 3012 
Q 1850 3000 2150 2862 
Q 2450 2725 2587 2487 
Q 2725 2250 2787 2012 
Q 2850 1775 2837 1500 
Q 2825 1225 2725 937 
Q 2625 650 2425 462 
Q 2225 275 1937 162 
Q 1650 50 1275 75 
Q 900 100 562 350 
Q 225 600 100 1200 
L 550 1325 
z
" transform="scale(0.015625)"/>
       </defs>
       <use xlink:href="#SimHei-34"/>
       <use xlink:href="#SimHei-35" x="50"/>
       <use xlink:href="#SimHei-30" x="100"/>
      </g>
     </g>
    </g>
    <g id="xtick_7">
     <g id="line2d_13">
      <path d="M 996.218182 512.64 
L 996.218182 69.12 
" clip-path="url(#pc47fe876a4)" style="fill: none; stroke: #b0b0b0; stroke-opacity: 0.9; stroke-width: 0.8; stroke-linecap: square"/>
     </g>
     <g id="line2d_14">
      <g>
       <use xlink:href="#m549ac662a7" x="996.218182" y="512.64" style="stroke: #000000; stroke-width: 0.8"/>
      </g>
     </g>
     <g id="text_7">
      <!-- 540 -->
      <g transform="translate(988.718182 526.515)scale(0.1 -0.1)">
       <use xlink:href="#SimHei-35"/>
       <use xlink:href="#SimHei-34" x="50"/>
       <use xlink:href="#SimHei-30" x="100"/>
      </g>
     </g>
    </g>
   </g>
   <g id="matplotlib.axis_2">
    <g id="ytick_1">
     <g id="line2d_15">
      <path d="M 144 492.48 
L 1036.8 492.48 
" clip-path="url(#pc47fe876a4)" style="fill: none; stroke: #b0b0b0; stroke-opacity: 0.9; stroke-width: 0.8; stroke-linecap: square"/>
     </g>
     <g id="line2d_16">
      <defs>
       <path id="mc8a09d8d08" d="M 0 0 
L -3.5 0 
" style="stroke: #000000; stroke-width: 0.8"/>
      </defs>
      <g>
       <use xlink:href="#mc8a09d8d08" x="144" y="492.48" style="stroke: #000000; stroke-width: 0.8"/>
      </g>
     </g>
     <g id="text_8">
      <!-- -3 -->
      <g transform="translate(127 495.9175)scale(0.1 -0.1)">
       <defs>
        <path id="SimHei-2d" d="M 2975 2125 
L 125 2125 
L 125 2525 
L 2975 2525 
L 2975 2125 
z
" transform="scale(0.015625)"/>
       </defs>
       <use xlink:href="#SimHei-2d"/>
       <use xlink:href="#SimHei-33" x="50"/>
      </g>
     </g>
    </g>
    <g id="ytick_2">
     <g id="line2d_17">
      <path d="M 144 425.28 
L 1036.8 425.28 
" clip-path="url(#pc47fe876a4)" style="fill: none; stroke: #b0b0b0; stroke-opacity: 0.9; stroke-width: 0.8; stroke-linecap: square"/>
     </g>
     <g id="line2d_18">
      <g>
       <use xlink:href="#mc8a09d8d08" x="144" y="425.28" style="stroke: #000000; stroke-width: 0.8"/>
      </g>
     </g>
     <g id="text_9">
      <!-- -2 -->
      <g transform="translate(127 428.7175)scale(0.1 -0.1)">
       <use xlink:href="#SimHei-2d"/>
       <use xlink:href="#SimHei-32" x="50"/>
      </g>
     </g>
    </g>
    <g id="ytick_3">
     <g id="line2d_19">
      <path d="M 144 358.08 
L 1036.8 358.08 
" clip-path="url(#pc47fe876a4)" style="fill: none; stroke: #b0b0b0; stroke-opacity: 0.9; stroke-width: 0.8; stroke-linecap: square"/>
     </g>
     <g id="line2d_20">
      <g>
       <use xlink:href="#mc8a09d8d08" x="144" y="358.08" style="stroke: #000000; stroke-width: 0.8"/>
      </g>
     </g>
     <g id="text_10">
      <!-- -1 -->
      <g transform="translate(127 361.5175)scale(0.1 -0.1)">
       <use xlink:href="#SimHei-2d"/>
       <use xlink:href="#SimHei-31" x="50"/>
      </g>
     </g>
    </g>
    <g id="ytick_4">
     <g id="line2d_21">
      <path d="M 144 290.88 
L 1036.8 290.88 
" clip-path="url(#pc47fe876a4)" style="fill: none; stroke: #b0b0b0; stroke-opacity: 0.9; stroke-width: 0.8; stroke-linecap: square"/>
     </g>
     <g id="line2d_22">
      <g>
       <use xlink:href="#mc8a09d8d08" x="144" y="290.88" style="stroke: #000000; stroke-width: 0.8"/>
      </g>
     </g>
     <g id="text_11">
      <!-- 0 -->
      <g transform="translate(132 294.3175)scale(0.1 -0.1)">
       <use xlink:href="#SimHei-30"/>
      </g>
     </g>
    </g>
    <g id="ytick_5">
     <g id="line2d_23">
      <path d="M 144 223.68 
L 1036.8 223.68 
" clip-path="url(#pc47fe876a4)" style="fill: none; stroke: #b0b0b0; stroke-opacity: 0.9; stroke-width: 0.8; stroke-linecap: square"/>
     </g>
     <g id="line2d_24">
      <g>
       <use xlink:href="#mc8a09d8d08" x="144" y="223.68" style="stroke: #000000; stroke-width: 0.8"/>
      </g>
     </g>
     <g id="text_12">
      <!-- 1 -->
      <g transform="translate(132 227.1175)scale(0.1 -0.1)">
       <use xlink:href="#SimHei-31"/>
      </g>
     </g>
    </g>
    <g id="ytick_6">
     <g id="line2d_25">
      <path d="M 144 156.48 
L 1036.8 156.48 
" clip-path="url(#pc47fe876a4)" style="fill: none; stroke: #b0b0b0; stroke-opacity: 0.9; stroke-width: 0.8; stroke-linecap: square"/>
     </g>
     <g id="line2d_26">
      <g>
       <use xlink:href="#mc8a09d8d08" x="144" y="156.48" style="stroke: #000000; stroke-width: 0.8"/>
      </g>
     </g>
     <g id="text_13">
      <!-- 2 -->
      <g transform="translate(132 159.9175)scale(0.1 -0.1)">
       <use xlink:href="#SimHei-32"/>
      </g>
     </g>
    </g>
    <g id="ytick_7">
     <g id="line2d_27">
      <path d="M 144 89.28 
L 1036.8 89.28 
" clip-path="url(#pc47fe876a4)" style="fill: none; stroke: #b0b0b0; stroke-opacity: 0.9; stroke-width: 0.8; stroke-linecap: square"/>
     </g>
     <g id="line2d_28">
      <g>
       <use xlink:href="#mc8a09d8d08" x="144" y="89.28" style="stroke: #000000; stroke-width: 0.8"/>
      </g>
     </g>
     <g id="text_14">
      <!-- 3 -->
      <g transform="translate(132 92.7175)scale(0.1 -0.1)">
       <use xlink:href="#SimHei-33"/>
      </g>
     </g>
    </g>
   </g>
   <g id="line2d_29">
    <path d="M 184.581818 492.48 
L 186.084848 492.357191 
L 187.587879 491.988913 
L 189.090909 491.375614 
L 190.593939 490.518043 
L 192.09697 489.417243 
L 193.6 488.074556 
L 195.10303 486.491618 
L 196.606061 484.670358 
L 198.860606 481.496545 
L 201.115152 477.800265 
L 203.369697 473.59165 
L 205.624242 468.882235 
L 207.878788 463.684928 
L 210.133333 458.013975 
L 213.139394 449.742968 
L 216.145455 440.697997 
L 219.151515 430.923127 
L 222.157576 420.465982 
L 225.915152 406.51301 
L 229.672727 391.68 
L 234.181818 372.878107 
L 239.442424 349.822136 
L 245.454545 322.417188 
L 267.248485 221.928739 
L 272.509091 199.355515 
L 277.018182 181.080771 
L 280.775758 166.762647 
L 284.533333 153.389131 
L 287.539394 143.439094 
L 290.545455 134.207374 
L 293.551515 125.738948 
L 296.557576 118.075072 
L 298.812121 112.877765 
L 301.066667 108.16835 
L 303.321212 103.959735 
L 305.575758 100.263455 
L 307.830303 97.089642 
L 309.333333 95.268382 
L 310.836364 93.685444 
L 312.339394 92.342757 
L 313.842424 91.241957 
L 315.345455 90.384386 
L 316.848485 89.771087 
L 318.351515 89.402809 
L 319.854545 89.28 
L 321.357576 89.402809 
L 322.860606 89.771087 
L 324.363636 90.384386 
L 325.866667 91.241957 
L 327.369697 92.342757 
L 328.872727 93.685444 
L 330.375758 95.268382 
L 331.878788 97.089642 
L 334.133333 100.263455 
L 336.387879 103.959735 
L 338.642424 108.16835 
L 340.89697 112.877765 
L 343.151515 118.075072 
L 345.406061 123.746025 
L 348.412121 132.017032 
L 351.418182 141.062003 
L 354.424242 150.836873 
L 357.430303 161.294018 
L 361.187879 175.24699 
L 364.945455 190.08 
L 369.454545 208.881893 
L 374.715152 231.937864 
L 380.727273 259.342812 
L 402.521212 359.831261 
L 407.781818 382.404485 
L 412.290909 400.679229 
L 416.048485 414.997353 
L 419.806061 428.370869 
L 422.812121 438.320906 
L 425.818182 447.552626 
L 428.824242 456.021052 
L 431.830303 463.684928 
L 434.084848 468.882235 
L 436.339394 473.59165 
L 438.593939 477.800265 
L 440.848485 481.496545 
L 443.10303 484.670358 
L 444.606061 486.491618 
L 446.109091 488.074556 
L 447.612121 489.417243 
L 449.115152 490.518043 
L 450.618182 491.375614 
L 452.121212 491.988913 
L 453.624242 492.357191 
L 455.127273 492.48 
L 456.630303 492.357191 
L 458.133333 491.988913 
L 459.636364 491.375614 
L 461.139394 490.518043 
L 462.642424 489.417243 
L 464.145455 488.074556 
L 465.648485 486.491618 
L 467.151515 484.670358 
L 469.406061 481.496545 
L 471.660606 477.800265 
L 473.915152 473.59165 
L 476.169697 468.882235 
L 478.424242 463.684928 
L 480.678788 458.013975 
L 483.684848 449.742968 
L 486.690909 440.697997 
L 489.69697 430.923127 
L 492.70303 420.465982 
L 496.460606 406.51301 
L 500.218182 391.68 
L 504.727273 372.878107 
L 509.987879 349.822136 
L 516 322.417188 
L 537.793939 221.928739 
L 543.054545 199.355515 
L 547.563636 181.080771 
L 551.321212 166.762647 
L 555.078788 153.389131 
L 558.084848 143.439094 
L 561.090909 134.207374 
L 564.09697 125.738948 
L 567.10303 118.075072 
L 569.357576 112.877765 
L 571.612121 108.16835 
L 573.866667 103.959735 
L 576.121212 100.263455 
L 578.375758 97.089642 
L 579.878788 95.268382 
L 581.381818 93.685444 
L 582.884848 92.342757 
L 584.387879 91.241957 
L 585.890909 90.384386 
L 587.393939 89.771087 
L 588.89697 89.402809 
L 590.4 89.28 
L 591.90303 89.402809 
L 593.406061 89.771087 
L 594.909091 90.384386 
L 596.412121 91.241957 
L 597.915152 92.342757 
L 599.418182 93.685444 
L 600.921212 95.268382 
L 602.424242 97.089642 
L 604.678788 100.263455 
L 606.933333 103.959735 
L 609.187879 108.16835 
L 611.442424 112.877765 
L 613.69697 118.075072 
L 615.951515 123.746025 
L 618.957576 132.017032 
L 621.963636 141.062003 
L 624.969697 150.836873 
L 627.975758 161.294018 
L 631.733333 175.24699 
L 635.490909 190.08 
L 640 208.881893 
L 645.260606 231.937864 
L 651.272727 259.342812 
L 673.066667 359.831261 
L 678.327273 382.404485 
L 682.836364 400.679229 
L 686.593939 414.997353 
L 690.351515 428.370869 
L 693.357576 438.320906 
L 696.363636 447.552626 
L 699.369697 456.021052 
L 702.375758 463.684928 
L 704.630303 468.882235 
L 706.884848 473.59165 
L 709.139394 477.800265 
L 711.393939 481.496545 
L 713.648485 484.670358 
L 715.151515 486.491618 
L 716.654545 488.074556 
L 718.157576 489.417243 
L 719.660606 490.518043 
L 721.163636 491.375614 
L 722.666667 491.988913 
L 724.169697 492.357191 
L 725.672727 492.48 
L 727.175758 492.357191 
L 728.678788 491.988913 
L 730.181818 491.375614 
L 731.684848 490.518043 
L 733.187879 489.417243 
L 734.690909 488.074556 
L 736.193939 486.491618 
L 737.69697 484.670358 
L 739.951515 481.496545 
L 742.206061 477.800265 
L 744.460606 473.59165 
L 746.715152 468.882235 
L 748.969697 463.684928 
L 751.224242 458.013975 
L 754.230303 449.742968 
L 757.236364 440.697997 
L 760.242424 430.923127 
L 763.248485 420.465982 
L 767.006061 406.51301 
L 770.763636 391.68 
L 775.272727 372.878107 
L 780.533333 349.822136 
L 786.545455 322.417188 
L 808.339394 221.928739 
L 813.6 199.355515 
L 818.109091 181.080771 
L 821.866667 166.762647 
L 825.624242 153.389131 
L 828.630303 143.439094 
L 831.636364 134.207374 
L 834.642424 125.738948 
L 837.648485 118.075072 
L 839.90303 112.877765 
L 842.157576 108.16835 
L 844.412121 103.959735 
L 846.666667 100.263455 
L 848.921212 97.089642 
L 850.424242 95.268382 
L 851.927273 93.685444 
L 853.430303 92.342757 
L 854.933333 91.241957 
L 856.436364 90.384386 
L 857.939394 89.771087 
L 859.442424 89.402809 
L 860.945455 89.28 
L 862.448485 89.402809 
L 863.951515 89.771087 
L 865.454545 90.384386 
L 866.957576 91.241957 
L 868.460606 92.342757 
L 869.963636 93.685444 
L 871.466667 95.268382 
L 872.969697 97.089642 
L 875.224242 100.263455 
L 877.478788 103.959735 
L 879.733333 108.16835 
L 881.987879 112.877765 
L 884.242424 118.075072 
L 886.49697 123.746025 
L 889.50303 132.017032 
L 892.509091 141.062003 
L 895.515152 150.836873 
L 898.521212 161.294018 
L 902.278788 175.24699 
L 906.036364 190.08 
L 910.545455 208.881893 
L 915.806061 231.937864 
L 921.818182 259.342812 
L 943.612121 359.831261 
L 948.872727 382.404485 
L 953.381818 400.679229 
L 957.139394 414.997353 
L 960.89697 428.370869 
L 963.90303 438.320906 
L 966.909091 447.552626 
L 969.915152 456.021052 
L 972.921212 463.684928 
L 975.175758 468.882235 
L 977.430303 473.59165 
L 979.684848 477.800265 
L 981.939394 481.496545 
L 984.193939 484.670358 
L 985.69697 486.491618 
L 987.2 488.074556 
L 988.70303 489.417243 
L 990.206061 490.518043 
L 991.709091 491.375614 
L 993.212121 491.988913 
L 994.715152 492.357191 
L 996.218182 492.48 
L 996.218182 492.48 
" clip-path="url(#pc47fe876a4)" style="fill: none; stroke: #1f77b4; stroke-width: 1.5; stroke-linecap: square"/>
   </g>
   <g id="patch_3">
    <path d="M 144 512.64 
L 144 69.12 
" style="fill: none; stroke: #000000; stroke-width: 0.8; stroke-linejoin: miter; stroke-linecap: square"/>
   </g>
   <g id="patch_4">
    <path d="M 1036.8 512.64 
L 1036.8 69.12 
" style="fill: none; stroke: #000000; stroke-width: 0.8; stroke-linejoin: miter; stroke-linecap: square"/>
   </g>
   <g id="patch_5">
    <path d="M 144 512.64 
L 1036.8 512.64 
" style="fill: none; stroke: #000000; stroke-width: 0.8; stroke-linejoin: miter; stroke-linecap: square"/>
   </g>
   <g id="patch_6">
    <path d="M 144 69.12 
L 1036.8 69.12 
" style="fill: none; stroke: #000000; stroke-width: 0.8; stroke-linejoin: miter; stroke-linecap: square"/>
   </g>
   <g id="legend_1">
    <g id="patch_7">
     <path d="M 939.7 95.62 
L 1029.8 95.62 
Q 1031.8 95.62 1031.8 93.62 
L 1031.8 76.12 
Q 1031.8 74.12 1029.8 74.12 
L 939.7 74.12 
Q 937.7 74.12 937.7 76.12 
L 937.7 93.62 
Q 937.7 95.62 939.7 95.62 
z
" style="fill: #ffffff; opacity: 0.8; stroke: #cccccc; stroke-linejoin: miter"/>
    </g>
    <g id="line2d_30">
     <path d="M 941.7 84.12 
L 951.7 84.12 
L 961.7 84.12 
" style="fill: none; stroke: #1f77b4; stroke-width: 1.5; stroke-linecap: square"/>
    </g>
    <g id="text_15">
     <!-- $3\sin(\frac{1}{2}x+\frac{\pi}{2})$ -->
     <g transform="translate(969.7 87.62)scale(0.1 -0.1)">
      <defs>
       <path id="DejaVuSans-33" d="M 2597 2516 
Q 3050 2419 3304 2112 
Q 3559 1806 3559 1356 
Q 3559 666 3084 287 
Q 2609 -91 1734 -91 
Q 1441 -91 1130 -33 
Q 819 25 488 141 
L 488 750 
Q 750 597 1062 519 
Q 1375 441 1716 441 
Q 2309 441 2620 675 
Q 2931 909 2931 1356 
Q 2931 1769 2642 2001 
Q 2353 2234 1838 2234 
L 1294 2234 
L 1294 2753 
L 1863 2753 
Q 2328 2753 2575 2939 
Q 2822 3125 2822 3475 
Q 2822 3834 2567 4026 
Q 2313 4219 1838 4219 
Q 1578 4219 1281 4162 
Q 984 4106 628 3988 
L 628 4550 
Q 988 4650 1302 4700 
Q 1616 4750 1894 4750 
Q 2613 4750 3031 4423 
Q 3450 4097 3450 3541 
Q 3450 3153 3228 2886 
Q 3006 2619 2597 2516 
z
" transform="scale(0.015625)"/>
       <path id="DejaVuSans-73" d="M 2834 3397 
L 2834 2853 
Q 2591 2978 2328 3040 
Q 2066 3103 1784 3103 
Q 1356 3103 1142 2972 
Q 928 2841 928 2578 
Q 928 2378 1081 2264 
Q 1234 2150 1697 2047 
L 1894 2003 
Q 2506 1872 2764 1633 
Q 3022 1394 3022 966 
Q 3022 478 2636 193 
Q 2250 -91 1575 -91 
Q 1294 -91 989 -36 
Q 684 19 347 128 
L 347 722 
Q 666 556 975 473 
Q 1284 391 1588 391 
Q 1994 391 2212 530 
Q 2431 669 2431 922 
Q 2431 1156 2273 1281 
Q 2116 1406 1581 1522 
L 1381 1569 
Q 847 1681 609 1914 
Q 372 2147 372 2553 
Q 372 3047 722 3315 
Q 1072 3584 1716 3584 
Q 2034 3584 2315 3537 
Q 2597 3491 2834 3397 
z
" transform="scale(0.015625)"/>
       <path id="DejaVuSans-69" d="M 603 3500 
L 1178 3500 
L 1178 0 
L 603 0 
L 603 3500 
z
M 603 4863 
L 1178 4863 
L 1178 4134 
L 603 4134 
L 603 4863 
z
" transform="scale(0.015625)"/>
       <path id="DejaVuSans-6e" d="M 3513 2113 
L 3513 0 
L 2938 0 
L 2938 2094 
Q 2938 2591 2744 2837 
Q 2550 3084 2163 3084 
Q 1697 3084 1428 2787 
Q 1159 2491 1159 1978 
L 1159 0 
L 581 0 
L 581 3500 
L 1159 3500 
L 1159 2956 
Q 1366 3272 1645 3428 
Q 1925 3584 2291 3584 
Q 2894 3584 3203 3211 
Q 3513 2838 3513 2113 
z
" transform="scale(0.015625)"/>
       <path id="DejaVuSans-28" d="M 1984 4856 
Q 1566 4138 1362 3434 
Q 1159 2731 1159 2009 
Q 1159 1288 1364 580 
Q 1569 -128 1984 -844 
L 1484 -844 
Q 1016 -109 783 600 
Q 550 1309 550 2009 
Q 550 2706 781 3412 
Q 1013 4119 1484 4856 
L 1984 4856 
z
" transform="scale(0.015625)"/>
       <path id="DejaVuSans-31" d="M 794 531 
L 1825 531 
L 1825 4091 
L 703 3866 
L 703 4441 
L 1819 4666 
L 2450 4666 
L 2450 531 
L 3481 531 
L 3481 0 
L 794 0 
L 794 531 
z
" transform="scale(0.015625)"/>
       <path id="DejaVuSans-32" d="M 1228 531 
L 3431 531 
L 3431 0 
L 469 0 
L 469 531 
Q 828 903 1448 1529 
Q 2069 2156 2228 2338 
Q 2531 2678 2651 2914 
Q 2772 3150 2772 3378 
Q 2772 3750 2511 3984 
Q 2250 4219 1831 4219 
Q 1534 4219 1204 4116 
Q 875 4013 500 3803 
L 500 4441 
Q 881 4594 1212 4672 
Q 1544 4750 1819 4750 
Q 2544 4750 2975 4387 
Q 3406 4025 3406 3419 
Q 3406 3131 3298 2873 
Q 3191 2616 2906 2266 
Q 2828 2175 2409 1742 
Q 1991 1309 1228 531 
z
" transform="scale(0.015625)"/>
       <path id="DejaVuSans-Oblique-78" d="M 3841 3500 
L 2234 1784 
L 3219 0 
L 2559 0 
L 1819 1388 
L 531 0 
L -166 0 
L 1556 1844 
L 641 3500 
L 1300 3500 
L 1972 2234 
L 3144 3500 
L 3841 3500 
z
" transform="scale(0.015625)"/>
       <path id="DejaVuSans-2b" d="M 2944 4013 
L 2944 2272 
L 4684 2272 
L 4684 1741 
L 2944 1741 
L 2944 0 
L 2419 0 
L 2419 1741 
L 678 1741 
L 678 2272 
L 2419 2272 
L 2419 4013 
L 2944 4013 
z
" transform="scale(0.015625)"/>
       <path id="DejaVuSans-Oblique-3c0" d="M 584 3500 
L 3938 3500 
L 3825 2925 
L 3384 2925 
L 2966 775 
Q 2922 550 2981 450 
Q 3038 353 3209 353 
Q 3256 353 3325 363 
Q 3397 369 3419 372 
L 3338 -44 
Q 3222 -84 3103 -103 
Q 2981 -122 2866 -122 
Q 2491 -122 2388 81 
Q 2284 288 2391 838 
L 2797 2925 
L 1506 2925 
L 938 0 
L 350 0 
L 919 2925 
L 472 2925 
L 584 3500 
z
" transform="scale(0.015625)"/>
       <path id="DejaVuSans-29" d="M 513 4856 
L 1013 4856 
Q 1481 4119 1714 3412 
Q 1947 2706 1947 2009 
Q 1947 1309 1714 600 
Q 1481 -109 1013 -844 
L 513 -844 
Q 928 -128 1133 580 
Q 1338 1288 1338 2009 
Q 1338 2731 1133 3434 
Q 928 4138 513 4856 
z
" transform="scale(0.015625)"/>
      </defs>
      <use xlink:href="#DejaVuSans-33" transform="translate(0 0.16875)"/>
      <use xlink:href="#DejaVuSans-73" transform="translate(63.623047 0.16875)"/>
      <use xlink:href="#DejaVuSans-69" transform="translate(115.722656 0.16875)"/>
      <use xlink:href="#DejaVuSans-6e" transform="translate(143.505859 0.16875)"/>
      <use xlink:href="#DejaVuSans-28" transform="translate(206.884766 0.16875)"/>
      <use xlink:href="#DejaVuSans-31" transform="translate(245.898438 43.965625)scale(0.7)"/>
      <use xlink:href="#DejaVuSans-32" transform="translate(245.898438 -39.2375)scale(0.7)"/>
      <use xlink:href="#DejaVuSans-Oblique-78" transform="translate(302.93457 0.16875)"/>
      <use xlink:href="#DejaVuSans-2b" transform="translate(381.59668 0.16875)"/>
      <use xlink:href="#DejaVuSans-Oblique-3c0" transform="translate(485.868164 45.3)scale(0.7)"/>
      <use xlink:href="#DejaVuSans-32" transform="translate(484.868164 -39.2375)scale(0.7)"/>
      <use xlink:href="#DejaVuSans-29" transform="translate(541.904297 0.16875)"/>
      <path d="M 245.898438 18.965625 
L 245.898438 25.215625 
L 290.43457 25.215625 
L 290.43457 18.965625 
L 245.898438 18.965625 
z
"/>
      <path d="M 484.868164 18.965625 
L 484.868164 25.215625 
L 529.404297 25.215625 
L 529.404297 18.965625 
L 484.868164 18.965625 
z
"/>
     </g>
    </g>
   </g>
  </g>
 </g>
 <defs>
  <clipPath id="pc47fe876a4">
   <rect x="144" y="69.12" width="892.8" height="443.52"/>
  </clipPath>
 </defs>
</svg>
